<?xml version="1.0" encoding="UTF-8"?>
<svg xmlns="http://www.w3.org/2000/svg" xmlns:xlink="http://www.w3.org/1999/xlink" width="1920" height="1080" viewBox="0 0 1920 1080">
<defs>
<g>
<g id="glyph-0-0">
<path d="M 4.761719 -1.542969 L 4.664062 0 L 0.234375 0 L 0.234375 -0.265625 C 0.3125 -0.269531 0.40625 -0.28125 0.511719 -0.296875 C 0.617188 -0.3125 0.6875 -0.324219 0.722656 -0.339844 C 0.804688 -0.371094 0.859375 -0.414062 0.890625 -0.472656 C 0.921875 -0.527344 0.9375 -0.601562 0.9375 -0.6875 L 0.9375 -4.082031 C 0.9375 -4.164062 0.925781 -4.230469 0.902344 -4.285156 C 0.878906 -4.335938 0.816406 -4.386719 0.722656 -4.429688 C 0.652344 -4.460938 0.566406 -4.484375 0.46875 -4.503906 C 0.371094 -4.523438 0.292969 -4.539062 0.234375 -4.546875 L 0.234375 -4.8125 L 2.875 -4.8125 L 2.875 -4.546875 C 2.804688 -4.539062 2.71875 -4.53125 2.621094 -4.519531 C 2.519531 -4.503906 2.4375 -4.488281 2.363281 -4.464844 C 2.273438 -4.4375 2.214844 -4.390625 2.1875 -4.328125 C 2.15625 -4.265625 2.144531 -4.195312 2.144531 -4.117188 L 2.144531 -0.953125 C 2.144531 -0.804688 2.152344 -0.6875 2.171875 -0.601562 C 2.195312 -0.515625 2.234375 -0.449219 2.292969 -0.410156 C 2.351562 -0.367188 2.433594 -0.339844 2.539062 -0.328125 C 2.644531 -0.316406 2.789062 -0.308594 2.972656 -0.308594 C 3.15625 -0.308594 3.332031 -0.320312 3.5 -0.339844 C 3.671875 -0.363281 3.792969 -0.410156 3.867188 -0.480469 C 3.984375 -0.597656 4.101562 -0.757812 4.222656 -0.96875 C 4.34375 -1.175781 4.441406 -1.367188 4.511719 -1.542969 Z "/>
</g>
<g id="glyph-0-1">
<path d="M 3.660156 -2.964844 C 3.824219 -2.808594 3.953125 -2.621094 4.042969 -2.402344 C 4.128906 -2.1875 4.175781 -1.953125 4.175781 -1.699219 C 4.175781 -1.449219 4.128906 -1.210938 4.042969 -0.988281 C 3.957031 -0.765625 3.828125 -0.574219 3.660156 -0.417969 C 3.484375 -0.246094 3.269531 -0.117188 3.023438 -0.0273438 C 2.773438 0.0625 2.492188 0.109375 2.171875 0.109375 C 1.898438 0.109375 1.644531 0.0703125 1.414062 -0.0117188 C 1.179688 -0.0898438 0.976562 -0.207031 0.796875 -0.367188 C 0.625 -0.519531 0.488281 -0.703125 0.390625 -0.925781 C 0.289062 -1.148438 0.242188 -1.398438 0.242188 -1.675781 C 0.242188 -1.945312 0.285156 -2.1875 0.371094 -2.398438 C 0.457031 -2.609375 0.589844 -2.796875 0.761719 -2.964844 C 0.929688 -3.121094 1.136719 -3.246094 1.382812 -3.332031 C 1.625 -3.417969 1.902344 -3.460938 2.203125 -3.460938 C 2.519531 -3.460938 2.800781 -3.417969 3.039062 -3.332031 C 3.28125 -3.246094 3.488281 -3.121094 3.660156 -2.964844 M 2.789062 -0.613281 C 2.839844 -0.742188 2.875 -0.894531 2.902344 -1.074219 C 2.925781 -1.253906 2.9375 -1.464844 2.9375 -1.707031 C 2.9375 -1.863281 2.925781 -2.042969 2.902344 -2.246094 C 2.878906 -2.453125 2.847656 -2.613281 2.800781 -2.730469 C 2.746094 -2.871094 2.671875 -2.984375 2.574219 -3.066406 C 2.480469 -3.148438 2.359375 -3.1875 2.210938 -3.1875 C 2.050781 -3.1875 1.921875 -3.144531 1.824219 -3.054688 C 1.730469 -2.96875 1.65625 -2.851562 1.605469 -2.710938 C 1.554688 -2.582031 1.523438 -2.433594 1.503906 -2.261719 C 1.488281 -2.085938 1.476562 -1.90625 1.476562 -1.71875 C 1.476562 -1.472656 1.484375 -1.269531 1.503906 -1.105469 C 1.519531 -0.945312 1.554688 -0.785156 1.617188 -0.621094 C 1.667969 -0.480469 1.742188 -0.371094 1.839844 -0.289062 C 1.9375 -0.207031 2.0625 -0.167969 2.210938 -0.167969 C 2.347656 -0.167969 2.460938 -0.203125 2.558594 -0.28125 C 2.65625 -0.355469 2.734375 -0.464844 2.789062 -0.613281 Z "/>
</g>
<g id="glyph-0-2">
<path d="M 2.132812 0.109375 C 1.820312 0.109375 1.542969 0.0625 1.300781 -0.0273438 C 1.058594 -0.121094 0.859375 -0.246094 0.707031 -0.402344 C 0.550781 -0.5625 0.433594 -0.753906 0.355469 -0.972656 C 0.277344 -1.191406 0.242188 -1.429688 0.242188 -1.6875 C 0.242188 -1.921875 0.289062 -2.148438 0.382812 -2.359375 C 0.476562 -2.574219 0.601562 -2.757812 0.761719 -2.917969 C 0.929688 -3.085938 1.132812 -3.214844 1.378906 -3.3125 C 1.625 -3.414062 1.894531 -3.460938 2.191406 -3.460938 C 2.605469 -3.460938 2.933594 -3.382812 3.175781 -3.226562 C 3.417969 -3.070312 3.539062 -2.855469 3.539062 -2.589844 C 3.539062 -2.425781 3.496094 -2.296875 3.410156 -2.195312 C 3.324219 -2.097656 3.175781 -2.046875 2.96875 -2.046875 C 2.796875 -2.046875 2.65625 -2.089844 2.542969 -2.171875 C 2.425781 -2.25 2.371094 -2.359375 2.371094 -2.488281 C 2.371094 -2.597656 2.386719 -2.710938 2.425781 -2.816406 C 2.460938 -2.925781 2.480469 -3.007812 2.488281 -3.066406 C 2.464844 -3.105469 2.433594 -3.136719 2.394531 -3.160156 C 2.355469 -3.179688 2.296875 -3.191406 2.214844 -3.191406 C 2.113281 -3.191406 2.019531 -3.167969 1.9375 -3.121094 C 1.851562 -3.070312 1.773438 -2.988281 1.703125 -2.867188 C 1.632812 -2.753906 1.574219 -2.605469 1.535156 -2.414062 C 1.492188 -2.222656 1.472656 -1.996094 1.472656 -1.730469 C 1.472656 -1.328125 1.566406 -1.003906 1.753906 -0.757812 C 1.945312 -0.507812 2.167969 -0.386719 2.429688 -0.386719 C 2.683594 -0.386719 2.882812 -0.441406 3.03125 -0.554688 C 3.175781 -0.667969 3.308594 -0.824219 3.425781 -1.03125 L 3.679688 -0.855469 C 3.609375 -0.714844 3.523438 -0.589844 3.429688 -0.476562 C 3.332031 -0.363281 3.214844 -0.261719 3.078125 -0.171875 C 2.9375 -0.0820312 2.792969 -0.0117188 2.644531 0.0390625 C 2.496094 0.0859375 2.328125 0.109375 2.132812 0.109375 Z "/>
</g>
<g id="glyph-0-3">
<path d="M 4.070312 -0.0703125 C 3.972656 -0.0273438 3.855469 0.0117188 3.71875 0.046875 C 3.585938 0.0820312 3.441406 0.101562 3.289062 0.101562 C 3.011719 0.101562 2.808594 0.0585938 2.679688 -0.0234375 C 2.546875 -0.105469 2.457031 -0.222656 2.410156 -0.375 L 2.390625 -0.375 C 2.3125 -0.300781 2.238281 -0.234375 2.167969 -0.179688 C 2.097656 -0.125 2.019531 -0.078125 1.9375 -0.0390625 C 1.832031 0.0078125 1.730469 0.046875 1.632812 0.0703125 C 1.53125 0.0976562 1.394531 0.109375 1.21875 0.109375 C 0.957031 0.109375 0.730469 0.03125 0.546875 -0.125 C 0.359375 -0.277344 0.269531 -0.484375 0.269531 -0.742188 C 0.269531 -0.886719 0.289062 -1.011719 0.328125 -1.117188 C 0.371094 -1.21875 0.425781 -1.308594 0.503906 -1.390625 C 0.570312 -1.460938 0.648438 -1.519531 0.738281 -1.570312 C 0.828125 -1.617188 0.925781 -1.660156 1.03125 -1.703125 C 1.234375 -1.777344 1.480469 -1.855469 1.765625 -1.933594 C 2.050781 -2.015625 2.257812 -2.085938 2.390625 -2.148438 L 2.390625 -2.476562 C 2.390625 -2.53125 2.386719 -2.605469 2.375 -2.699219 C 2.367188 -2.792969 2.347656 -2.871094 2.320312 -2.933594 C 2.289062 -3.003906 2.238281 -3.066406 2.171875 -3.117188 C 2.101562 -3.164062 2.011719 -3.191406 1.902344 -3.191406 C 1.800781 -3.191406 1.71875 -3.175781 1.652344 -3.148438 C 1.585938 -3.121094 1.53125 -3.089844 1.492188 -3.0625 C 1.5 -3.015625 1.519531 -2.949219 1.550781 -2.855469 C 1.582031 -2.761719 1.597656 -2.671875 1.597656 -2.585938 C 1.597656 -2.546875 1.585938 -2.5 1.566406 -2.441406 C 1.546875 -2.386719 1.515625 -2.339844 1.476562 -2.304688 C 1.425781 -2.261719 1.367188 -2.226562 1.304688 -2.199219 C 1.238281 -2.175781 1.140625 -2.164062 1.003906 -2.164062 C 0.816406 -2.164062 0.671875 -2.210938 0.574219 -2.300781 C 0.476562 -2.390625 0.425781 -2.511719 0.425781 -2.660156 C 0.425781 -2.785156 0.476562 -2.898438 0.578125 -3 C 0.679688 -3.097656 0.800781 -3.183594 0.945312 -3.25 C 1.089844 -3.316406 1.253906 -3.367188 1.4375 -3.40625 C 1.621094 -3.441406 1.792969 -3.460938 1.953125 -3.460938 C 2.171875 -3.460938 2.375 -3.449219 2.554688 -3.421875 C 2.738281 -3.398438 2.90625 -3.34375 3.050781 -3.261719 C 3.191406 -3.183594 3.304688 -3.066406 3.386719 -2.917969 C 3.46875 -2.765625 3.507812 -2.570312 3.507812 -2.328125 C 3.507812 -2.074219 3.503906 -1.769531 3.492188 -1.421875 C 3.484375 -1.070312 3.480469 -0.839844 3.480469 -0.730469 C 3.480469 -0.628906 3.492188 -0.546875 3.523438 -0.488281 C 3.554688 -0.429688 3.601562 -0.386719 3.664062 -0.355469 C 3.703125 -0.339844 3.765625 -0.328125 3.847656 -0.324219 C 3.929688 -0.320312 4.003906 -0.320312 4.070312 -0.320312 L 4.070312 -0.0703125 M 2.390625 -1.835938 C 2.261719 -1.792969 2.136719 -1.746094 2.011719 -1.691406 C 1.886719 -1.632812 1.785156 -1.574219 1.707031 -1.515625 C 1.621094 -1.453125 1.558594 -1.371094 1.507812 -1.273438 C 1.460938 -1.171875 1.4375 -1.058594 1.4375 -0.921875 C 1.4375 -0.746094 1.476562 -0.617188 1.558594 -0.539062 C 1.640625 -0.460938 1.738281 -0.421875 1.855469 -0.421875 C 1.980469 -0.421875 2.082031 -0.445312 2.164062 -0.496094 C 2.246094 -0.546875 2.316406 -0.609375 2.375 -0.683594 Z "/>
</g>
<g id="glyph-0-4">
<path d="M 2.71875 -0.15625 C 2.574219 -0.09375 2.417969 -0.0351562 2.253906 0.015625 C 2.089844 0.0664062 1.886719 0.0898438 1.652344 0.0898438 C 1.296875 0.0898438 1.035156 0.00390625 0.867188 -0.164062 C 0.695312 -0.335938 0.609375 -0.582031 0.609375 -0.902344 L 0.609375 -2.980469 L 0 -2.980469 L 0 -3.351562 L 0.625 -3.351562 L 0.625 -4.378906 L 1.722656 -4.378906 L 1.722656 -3.351562 L 2.675781 -3.351562 L 2.675781 -2.980469 L 1.730469 -2.980469 L 1.730469 -1.125 C 1.730469 -0.859375 1.765625 -0.671875 1.839844 -0.5625 C 1.914062 -0.453125 2.046875 -0.398438 2.234375 -0.398438 C 2.296875 -0.398438 2.382812 -0.402344 2.492188 -0.410156 C 2.601562 -0.417969 2.675781 -0.429688 2.71875 -0.441406 Z "/>
</g>
<g id="glyph-0-5">
<path d="M 3.839844 -0.808594 C 3.761719 -0.679688 3.667969 -0.558594 3.554688 -0.445312 C 3.441406 -0.332031 3.316406 -0.234375 3.171875 -0.152344 C 3.023438 -0.0664062 2.867188 0 2.714844 0.0429688 C 2.558594 0.0859375 2.382812 0.109375 2.179688 0.109375 C 1.84375 0.109375 1.558594 0.0625 1.3125 -0.0351562 C 1.070312 -0.128906 0.871094 -0.257812 0.710938 -0.417969 C 0.554688 -0.578125 0.4375 -0.765625 0.359375 -0.984375 C 0.28125 -1.203125 0.242188 -1.441406 0.242188 -1.695312 C 0.242188 -1.925781 0.28125 -2.148438 0.367188 -2.359375 C 0.453125 -2.570312 0.574219 -2.757812 0.730469 -2.921875 C 0.882812 -3.082031 1.078125 -3.214844 1.308594 -3.3125 C 1.542969 -3.410156 1.804688 -3.460938 2.09375 -3.460938 C 2.410156 -3.460938 2.671875 -3.421875 2.875 -3.347656 C 3.078125 -3.269531 3.246094 -3.164062 3.378906 -3.027344 C 3.507812 -2.898438 3.601562 -2.746094 3.660156 -2.570312 C 3.71875 -2.398438 3.75 -2.214844 3.75 -2.019531 L 3.75 -1.800781 L 1.457031 -1.800781 C 1.457031 -1.335938 1.546875 -0.984375 1.726562 -0.742188 C 1.90625 -0.5 2.1875 -0.378906 2.578125 -0.378906 C 2.789062 -0.378906 2.980469 -0.4375 3.148438 -0.554688 C 3.320312 -0.671875 3.464844 -0.816406 3.582031 -0.996094 L 3.839844 -0.808594 M 2.546875 -2.097656 C 2.546875 -2.234375 2.539062 -2.375 2.527344 -2.515625 C 2.511719 -2.660156 2.488281 -2.773438 2.453125 -2.863281 C 2.417969 -2.972656 2.363281 -3.050781 2.296875 -3.105469 C 2.230469 -3.160156 2.144531 -3.1875 2.042969 -3.1875 C 1.871094 -3.1875 1.730469 -3.097656 1.628906 -2.921875 C 1.523438 -2.746094 1.46875 -2.46875 1.457031 -2.085938 Z "/>
</g>
<g id="glyph-0-6">
</g>
<g id="glyph-0-7">
<path d="M 4.671875 0 L 2.632812 0 L 2.632812 -0.246094 C 2.675781 -0.253906 2.730469 -0.257812 2.789062 -0.265625 C 2.851562 -0.269531 2.898438 -0.28125 2.929688 -0.296875 C 2.976562 -0.324219 3.011719 -0.359375 3.03125 -0.40625 C 3.050781 -0.453125 3.0625 -0.523438 3.0625 -0.617188 L 3.0625 -2.203125 C 3.0625 -2.433594 3.019531 -2.609375 2.933594 -2.722656 C 2.847656 -2.839844 2.722656 -2.898438 2.558594 -2.898438 C 2.46875 -2.898438 2.382812 -2.886719 2.304688 -2.859375 C 2.226562 -2.832031 2.152344 -2.792969 2.074219 -2.738281 C 2.011719 -2.695312 1.957031 -2.648438 1.917969 -2.601562 C 1.878906 -2.554688 1.84375 -2.511719 1.816406 -2.476562 L 1.816406 -0.65625 C 1.816406 -0.574219 1.828125 -0.507812 1.851562 -0.457031 C 1.875 -0.402344 1.910156 -0.363281 1.964844 -0.335938 C 2 -0.316406 2.042969 -0.296875 2.097656 -0.28125 C 2.152344 -0.265625 2.207031 -0.253906 2.257812 -0.246094 L 2.257812 0 L 0.195312 0 L 0.195312 -0.246094 C 0.253906 -0.253906 0.308594 -0.257812 0.367188 -0.265625 C 0.425781 -0.273438 0.476562 -0.285156 0.515625 -0.296875 C 0.585938 -0.324219 0.636719 -0.363281 0.664062 -0.414062 C 0.691406 -0.464844 0.707031 -0.535156 0.707031 -0.617188 L 0.707031 -2.589844 C 0.707031 -2.660156 0.6875 -2.730469 0.652344 -2.796875 C 0.613281 -2.863281 0.566406 -2.921875 0.507812 -2.964844 C 0.46875 -2.992188 0.417969 -3.011719 0.355469 -3.03125 C 0.292969 -3.050781 0.222656 -3.0625 0.148438 -3.070312 L 0.148438 -3.316406 L 1.765625 -3.402344 L 1.816406 -3.351562 L 1.816406 -2.863281 L 1.832031 -2.863281 C 1.894531 -2.917969 1.972656 -2.984375 2.0625 -3.066406 C 2.152344 -3.144531 2.234375 -3.207031 2.3125 -3.257812 C 2.394531 -3.3125 2.503906 -3.359375 2.640625 -3.398438 C 2.777344 -3.4375 2.921875 -3.453125 3.074219 -3.453125 C 3.445312 -3.453125 3.71875 -3.351562 3.90625 -3.140625 C 4.089844 -2.933594 4.179688 -2.65625 4.179688 -2.308594 L 4.179688 -0.648438 C 4.179688 -0.5625 4.191406 -0.496094 4.21875 -0.449219 C 4.242188 -0.398438 4.289062 -0.359375 4.355469 -0.328125 C 4.394531 -0.3125 4.4375 -0.296875 4.492188 -0.28125 C 4.542969 -0.265625 4.605469 -0.253906 4.671875 -0.246094 Z "/>
</g>
<g id="glyph-0-8">
<path d="M 4.578125 -0.0703125 L 2.90625 0.0273438 L 2.855469 -0.0195312 L 2.855469 -0.332031 L 2.832031 -0.339844 C 2.71875 -0.21875 2.570312 -0.113281 2.382812 -0.0273438 C 2.195312 0.0625 2.003906 0.109375 1.8125 0.109375 C 1.355469 0.109375 0.980469 -0.0625 0.683594 -0.398438 C 0.386719 -0.738281 0.242188 -1.175781 0.242188 -1.714844 C 0.242188 -2.191406 0.40625 -2.601562 0.738281 -2.941406 C 1.066406 -3.285156 1.46875 -3.453125 1.9375 -3.453125 C 2.121094 -3.453125 2.296875 -3.433594 2.457031 -3.390625 C 2.621094 -3.351562 2.75 -3.300781 2.847656 -3.246094 L 2.847656 -4.355469 C 2.847656 -4.4375 2.832031 -4.515625 2.796875 -4.589844 C 2.761719 -4.664062 2.71875 -4.71875 2.660156 -4.761719 C 2.589844 -4.808594 2.503906 -4.847656 2.398438 -4.867188 C 2.292969 -4.890625 2.1875 -4.902344 2.082031 -4.914062 L 2.082031 -5.160156 L 3.917969 -5.25 L 3.96875 -5.195312 L 3.96875 -0.75 C 3.96875 -0.664062 3.980469 -0.589844 4.007812 -0.53125 C 4.039062 -0.472656 4.082031 -0.425781 4.144531 -0.394531 C 4.191406 -0.367188 4.261719 -0.351562 4.351562 -0.339844 C 4.445312 -0.328125 4.519531 -0.320312 4.578125 -0.320312 L 4.578125 -0.0703125 M 2.847656 -0.675781 L 2.847656 -2.589844 C 2.832031 -2.640625 2.808594 -2.699219 2.78125 -2.761719 C 2.753906 -2.828125 2.714844 -2.886719 2.664062 -2.941406 C 2.621094 -2.992188 2.558594 -3.03125 2.484375 -3.070312 C 2.410156 -3.105469 2.324219 -3.121094 2.230469 -3.121094 C 2.003906 -3.121094 1.820312 -2.996094 1.675781 -2.738281 C 1.53125 -2.484375 1.457031 -2.125 1.457031 -1.65625 C 1.457031 -1.476562 1.472656 -1.308594 1.496094 -1.164062 C 1.523438 -1.019531 1.570312 -0.886719 1.632812 -0.765625 C 1.699219 -0.644531 1.785156 -0.550781 1.886719 -0.484375 C 1.988281 -0.417969 2.113281 -0.382812 2.257812 -0.382812 C 2.394531 -0.382812 2.507812 -0.410156 2.597656 -0.460938 C 2.6875 -0.515625 2.769531 -0.585938 2.847656 -0.675781 Z "/>
</g>
<g id="glyph-0-9">
<path d="M 2.269531 0 L 0.132812 0 L 0.132812 -0.246094 C 0.191406 -0.253906 0.25 -0.257812 0.304688 -0.265625 C 0.359375 -0.269531 0.410156 -0.28125 0.453125 -0.296875 C 0.527344 -0.324219 0.574219 -0.363281 0.601562 -0.414062 C 0.628906 -0.464844 0.640625 -0.535156 0.640625 -0.617188 L 0.640625 -4.375 C 0.640625 -4.460938 0.625 -4.539062 0.589844 -4.613281 C 0.554688 -4.6875 0.507812 -4.742188 0.449219 -4.78125 C 0.402344 -4.808594 0.332031 -4.839844 0.242188 -4.867188 C 0.152344 -4.894531 0.0703125 -4.910156 0 -4.914062 L 0 -5.160156 L 1.707031 -5.25 L 1.757812 -5.195312 L 1.757812 -0.660156 C 1.757812 -0.578125 1.773438 -0.507812 1.804688 -0.457031 C 1.832031 -0.40625 1.882812 -0.363281 1.949219 -0.335938 C 1.992188 -0.316406 2.039062 -0.296875 2.089844 -0.28125 C 2.140625 -0.265625 2.199219 -0.253906 2.269531 -0.246094 Z "/>
</g>
</g>
</defs>
<g fill="rgb(100%, 100%, 100%)" fill-opacity="1">
<use xlink:href="#glyph-0-0" x="30" y="26.367188"/>
<use xlink:href="#glyph-0-1" x="35" y="26.367188"/>
<use xlink:href="#glyph-0-2" x="39" y="26.367188"/>
<use xlink:href="#glyph-0-3" x="43" y="26.367188"/>
<use xlink:href="#glyph-0-4" x="47" y="26.367188"/>
<use xlink:href="#glyph-0-5" x="50" y="26.367188"/>
<use xlink:href="#glyph-0-6" x="54" y="26.367188"/>
<use xlink:href="#glyph-0-7" x="56" y="26.367188"/>
<use xlink:href="#glyph-0-1" x="61" y="26.367188"/>
<use xlink:href="#glyph-0-8" x="65" y="26.367188"/>
<use xlink:href="#glyph-0-5" x="70" y="26.367188"/>
<use xlink:href="#glyph-0-6" x="74" y="26.367188"/>
<use xlink:href="#glyph-0-4" x="76" y="26.367188"/>
<use xlink:href="#glyph-0-1" x="79" y="26.367188"/>
<use xlink:href="#glyph-0-6" x="83" y="26.367188"/>
<use xlink:href="#glyph-0-8" x="85" y="26.367188"/>
<use xlink:href="#glyph-0-5" x="90" y="26.367188"/>
<use xlink:href="#glyph-0-9" x="94" y="26.367188"/>
<use xlink:href="#glyph-0-5" x="96" y="26.367188"/>
<use xlink:href="#glyph-0-4" x="100" y="26.367188"/>
<use xlink:href="#glyph-0-5" x="103" y="26.367188"/>
</g>
</svg>
