<?xml version="1.0" encoding="UTF-8"?>
<svg xmlns="http://www.w3.org/2000/svg" xmlns:xlink="http://www.w3.org/1999/xlink" width="1920" height="1080" viewBox="0 0 1920 1080">
<defs>
<g>
<g id="glyph-0-0">
<path d="M 2.257812 -2.03125 C 2.257812 -1.785156 2.171875 -1.574219 1.996094 -1.398438 C 1.820312 -1.222656 1.609375 -1.136719 1.363281 -1.136719 C 1.117188 -1.136719 0.90625 -1.222656 0.730469 -1.398438 C 0.554688 -1.574219 0.46875 -1.785156 0.46875 -2.03125 C 0.46875 -2.277344 0.554688 -2.488281 0.730469 -2.664062 C 0.90625 -2.839844 1.117188 -2.925781 1.363281 -2.925781 C 1.609375 -2.925781 1.820312 -2.839844 1.996094 -2.664062 C 2.171875 -2.488281 2.257812 -2.277344 2.257812 -2.03125 Z "/>
</g>
<g id="glyph-0-1">
</g>
<g id="glyph-0-2">
<path d="M 4.21875 -4.242188 C 4.429688 -4.019531 4.597656 -3.753906 4.714844 -3.441406 C 4.835938 -3.125 4.894531 -2.78125 4.894531 -2.402344 C 4.894531 -2.019531 4.835938 -1.671875 4.714844 -1.359375 C 4.589844 -1.046875 4.421875 -0.78125 4.203125 -0.5625 C 3.996094 -0.347656 3.75 -0.179688 3.472656 -0.0625 C 3.195312 0.0546875 2.898438 0.117188 2.582031 0.117188 C 2.25 0.117188 1.941406 0.0507812 1.65625 -0.0742188 C 1.371094 -0.199219 1.128906 -0.371094 0.925781 -0.597656 C 0.722656 -0.816406 0.5625 -1.082031 0.445312 -1.394531 C 0.328125 -1.707031 0.269531 -2.042969 0.269531 -2.402344 C 0.269531 -2.792969 0.332031 -3.140625 0.453125 -3.445312 C 0.578125 -3.753906 0.746094 -4.019531 0.960938 -4.242188 C 1.171875 -4.464844 1.417969 -4.632812 1.699219 -4.75 C 1.980469 -4.867188 2.277344 -4.925781 2.582031 -4.925781 C 2.902344 -4.925781 3.203125 -4.867188 3.484375 -4.746094 C 3.769531 -4.628906 4.011719 -4.457031 4.21875 -4.242188 M 3.710938 -0.832031 C 3.839844 -1.035156 3.929688 -1.269531 3.988281 -1.527344 C 4.046875 -1.789062 4.074219 -2.078125 4.074219 -2.402344 C 4.074219 -2.730469 4.042969 -3.035156 3.980469 -3.308594 C 3.914062 -3.585938 3.820312 -3.820312 3.695312 -4.015625 C 3.570312 -4.207031 3.414062 -4.355469 3.226562 -4.464844 C 3.039062 -4.570312 2.824219 -4.625 2.582031 -4.625 C 2.3125 -4.625 2.082031 -4.5625 1.890625 -4.4375 C 1.703125 -4.3125 1.546875 -4.148438 1.425781 -3.941406 C 1.3125 -3.742188 1.230469 -3.507812 1.175781 -3.242188 C 1.121094 -2.976562 1.089844 -2.695312 1.089844 -2.402344 C 1.089844 -2.074219 1.121094 -1.78125 1.179688 -1.519531 C 1.238281 -1.257812 1.332031 -1.023438 1.457031 -0.820312 C 1.578125 -0.621094 1.734375 -0.464844 1.917969 -0.355469 C 2.105469 -0.242188 2.324219 -0.1875 2.582031 -0.1875 C 2.824219 -0.1875 3.042969 -0.242188 3.238281 -0.355469 C 3.433594 -0.46875 3.589844 -0.628906 3.710938 -0.832031 Z "/>
</g>
<g id="glyph-0-3">
<path d="M 1.8125 0 L 0.179688 0 L 0.179688 -0.222656 C 0.230469 -0.226562 0.285156 -0.234375 0.347656 -0.238281 C 0.40625 -0.246094 0.453125 -0.253906 0.492188 -0.265625 C 0.554688 -0.285156 0.601562 -0.320312 0.632812 -0.371094 C 0.664062 -0.421875 0.679688 -0.488281 0.679688 -0.570312 L 0.679688 -4.445312 C 0.679688 -4.527344 0.664062 -4.601562 0.628906 -4.671875 C 0.59375 -4.746094 0.546875 -4.800781 0.492188 -4.839844 C 0.449219 -4.867188 0.375 -4.894531 0.269531 -4.917969 C 0.160156 -4.9375 0.0742188 -4.953125 0.0078125 -4.957031 L 0.0078125 -5.175781 L 1.265625 -5.25 L 1.3125 -5.199219 L 1.3125 -0.609375 C 1.3125 -0.53125 1.328125 -0.464844 1.355469 -0.414062 C 1.386719 -0.363281 1.433594 -0.324219 1.5 -0.296875 C 1.546875 -0.277344 1.597656 -0.257812 1.644531 -0.246094 C 1.695312 -0.234375 1.75 -0.226562 1.8125 -0.222656 Z "/>
</g>
<g id="glyph-0-4">
<path d="M 3.90625 -0.0625 L 2.738281 0.0117188 L 2.683594 -0.0351562 L 2.683594 -0.347656 L 2.660156 -0.351562 C 2.539062 -0.222656 2.394531 -0.113281 2.222656 -0.03125 C 2.050781 0.0546875 1.871094 0.09375 1.691406 0.09375 C 1.5 0.09375 1.316406 0.0507812 1.140625 -0.03125 C 0.960938 -0.117188 0.808594 -0.234375 0.675781 -0.390625 C 0.542969 -0.546875 0.4375 -0.734375 0.359375 -0.953125 C 0.28125 -1.171875 0.242188 -1.414062 0.242188 -1.679688 C 0.242188 -1.921875 0.285156 -2.148438 0.371094 -2.367188 C 0.453125 -2.582031 0.566406 -2.773438 0.714844 -2.9375 C 0.851562 -3.085938 1.019531 -3.207031 1.222656 -3.300781 C 1.421875 -3.390625 1.625 -3.433594 1.832031 -3.433594 C 1.988281 -3.433594 2.140625 -3.414062 2.289062 -3.375 C 2.441406 -3.335938 2.570312 -3.285156 2.679688 -3.222656 L 2.679688 -4.390625 C 2.679688 -4.484375 2.664062 -4.570312 2.632812 -4.648438 C 2.597656 -4.726562 2.554688 -4.789062 2.5 -4.828125 C 2.4375 -4.871094 2.351562 -4.902344 2.242188 -4.921875 C 2.136719 -4.941406 2.019531 -4.953125 1.894531 -4.964844 L 1.894531 -5.175781 L 3.265625 -5.25 L 3.316406 -5.199219 L 3.316406 -0.691406 C 3.316406 -0.613281 3.332031 -0.546875 3.363281 -0.488281 C 3.390625 -0.433594 3.4375 -0.386719 3.496094 -0.347656 C 3.539062 -0.320312 3.601562 -0.304688 3.683594 -0.296875 C 3.761719 -0.292969 3.839844 -0.285156 3.90625 -0.285156 L 3.90625 -0.0625 M 2.679688 -0.648438 L 2.679688 -2.605469 C 2.660156 -2.664062 2.632812 -2.726562 2.589844 -2.792969 C 2.550781 -2.863281 2.5 -2.925781 2.4375 -2.980469 C 2.371094 -3.035156 2.296875 -3.082031 2.207031 -3.121094 C 2.121094 -3.160156 2.019531 -3.175781 1.898438 -3.175781 C 1.765625 -3.175781 1.640625 -3.140625 1.527344 -3.070312 C 1.414062 -3 1.3125 -2.902344 1.222656 -2.769531 C 1.140625 -2.644531 1.074219 -2.484375 1.027344 -2.285156 C 0.976562 -2.089844 0.953125 -1.875 0.953125 -1.636719 C 0.953125 -1.449219 0.972656 -1.277344 1.007812 -1.121094 C 1.042969 -0.964844 1.105469 -0.820312 1.191406 -0.6875 C 1.269531 -0.5625 1.371094 -0.460938 1.492188 -0.382812 C 1.617188 -0.304688 1.761719 -0.269531 1.929688 -0.269531 C 2.109375 -0.269531 2.261719 -0.308594 2.378906 -0.386719 C 2.496094 -0.464844 2.597656 -0.550781 2.679688 -0.648438 Z "/>
</g>
</g>
</defs>
<g fill="rgb(87.058824%, 85.882353%, 78.431373%)" fill-opacity="1">
<use xlink:href="#glyph-0-0" x="30" y="26.367188"/>
<use xlink:href="#glyph-0-1" x="33" y="26.367188"/>
<use xlink:href="#glyph-0-2" x="35" y="26.367188"/>
<use xlink:href="#glyph-0-3" x="40" y="26.367188"/>
<use xlink:href="#glyph-0-4" x="42" y="26.367188"/>
</g>
</svg>
