<?xml version="1.0" encoding="UTF-8"?>
<svg xmlns="http://www.w3.org/2000/svg" xmlns:xlink="http://www.w3.org/1999/xlink" width="1920" height="1080" viewBox="0 0 1920 1080">
<defs>
<g>
<g id="glyph-0-0">
<path d="M 9.867188 -7.503906 C 9.867188 -6.941406 9.75 -6.453125 9.519531 -6.046875 C 9.285156 -5.640625 8.964844 -5.3125 8.554688 -5.058594 C 8.132812 -4.792969 7.648438 -4.601562 7.105469 -4.484375 C 6.5625 -4.367188 5.953125 -4.308594 5.277344 -4.308594 L 4.457031 -4.308594 L 4.457031 -1.496094 C 4.457031 -1.324219 4.488281 -1.179688 4.550781 -1.054688 C 4.617188 -0.929688 4.738281 -0.828125 4.914062 -0.753906 C 5.011719 -0.71875 5.164062 -0.675781 5.375 -0.632812 C 5.585938 -0.59375 5.765625 -0.5625 5.910156 -0.550781 L 5.910156 0 L 0.488281 0 L 0.488281 -0.550781 C 0.621094 -0.5625 0.804688 -0.585938 1.03125 -0.609375 C 1.253906 -0.636719 1.414062 -0.667969 1.503906 -0.707031 C 1.6875 -0.78125 1.808594 -0.871094 1.867188 -0.980469 C 1.925781 -1.089844 1.953125 -1.238281 1.953125 -1.433594 L 1.953125 -8.492188 C 1.953125 -8.65625 1.925781 -8.796875 1.867188 -8.917969 C 1.8125 -9.039062 1.691406 -9.136719 1.503906 -9.21875 C 1.371094 -9.273438 1.195312 -9.324219 0.976562 -9.371094 C 0.757812 -9.414062 0.59375 -9.445312 0.488281 -9.457031 L 0.488281 -10.007812 L 6.007812 -10.007812 C 7.300781 -10.007812 8.269531 -9.800781 8.90625 -9.390625 C 9.546875 -8.980469 9.867188 -8.351562 9.867188 -7.503906 M 7.117188 -7.144531 C 7.117188 -7.898438 6.964844 -8.453125 6.660156 -8.820312 C 6.359375 -9.183594 5.820312 -9.367188 5.042969 -9.367188 L 4.457031 -9.367188 L 4.457031 -4.972656 L 4.753906 -4.972656 C 5.523438 -4.972656 6.109375 -5.148438 6.511719 -5.503906 C 6.914062 -5.859375 7.117188 -6.40625 7.117188 -7.144531 Z "/>
</g>
<g id="glyph-0-1">
<path d="M 7.992188 -1.6875 C 7.828125 -1.417969 7.628906 -1.164062 7.394531 -0.925781 C 7.160156 -0.691406 6.898438 -0.488281 6.601562 -0.316406 C 6.285156 -0.140625 5.96875 -0.00390625 5.644531 0.0898438 C 5.324219 0.179688 4.953125 0.226562 4.535156 0.226562 C 3.839844 0.226562 3.238281 0.125 2.734375 -0.0703125 C 2.226562 -0.269531 1.808594 -0.535156 1.480469 -0.867188 C 1.152344 -1.203125 0.90625 -1.59375 0.742188 -2.046875 C 0.582031 -2.503906 0.5 -2.996094 0.5 -3.527344 C 0.5 -4.007812 0.589844 -4.464844 0.765625 -4.90625 C 0.941406 -5.34375 1.191406 -5.734375 1.515625 -6.078125 C 1.835938 -6.414062 2.238281 -6.683594 2.726562 -6.890625 C 3.210938 -7.097656 3.757812 -7.199219 4.359375 -7.199219 C 5.015625 -7.199219 5.558594 -7.121094 5.980469 -6.960938 C 6.402344 -6.800781 6.753906 -6.582031 7.03125 -6.296875 C 7.300781 -6.03125 7.496094 -5.714844 7.617188 -5.347656 C 7.738281 -4.984375 7.800781 -4.601562 7.800781 -4.203125 L 7.800781 -3.746094 L 3.03125 -3.746094 C 3.03125 -2.78125 3.21875 -2.046875 3.589844 -1.542969 C 3.960938 -1.042969 4.550781 -0.789062 5.359375 -0.789062 C 5.800781 -0.789062 6.199219 -0.910156 6.550781 -1.152344 C 6.90625 -1.394531 7.207031 -1.703125 7.453125 -2.074219 L 7.992188 -1.6875 M 5.296875 -4.367188 C 5.296875 -4.648438 5.28125 -4.9375 5.253906 -5.234375 C 5.226562 -5.53125 5.175781 -5.773438 5.105469 -5.960938 C 5.027344 -6.179688 4.917969 -6.347656 4.777344 -6.460938 C 4.640625 -6.574219 4.464844 -6.628906 4.253906 -6.628906 C 3.890625 -6.628906 3.601562 -6.445312 3.386719 -6.078125 C 3.167969 -5.710938 3.050781 -5.132812 3.03125 -4.335938 Z "/>
</g>
<g id="glyph-0-2">
<path d="M 9.457031 0 L 6.132812 0 C 5.726562 -0.71875 5.351562 -1.324219 5.011719 -1.824219 C 4.675781 -2.324219 4.355469 -2.789062 4.054688 -3.214844 L 3.640625 -2.863281 L 3.640625 -1.324219 C 3.640625 -1.15625 3.664062 -1.019531 3.714844 -0.910156 C 3.761719 -0.800781 3.859375 -0.722656 4 -0.671875 C 4.082031 -0.632812 4.183594 -0.597656 4.296875 -0.570312 C 4.40625 -0.542969 4.519531 -0.523438 4.632812 -0.515625 L 4.632812 0 L 0.253906 0 L 0.253906 -0.515625 C 0.371094 -0.523438 0.492188 -0.539062 0.609375 -0.554688 C 0.726562 -0.570312 0.832031 -0.59375 0.921875 -0.621094 C 1.074219 -0.671875 1.175781 -0.753906 1.230469 -0.859375 C 1.285156 -0.96875 1.3125 -1.109375 1.3125 -1.285156 L 1.3125 -9.148438 C 1.3125 -9.300781 1.277344 -9.464844 1.210938 -9.628906 C 1.140625 -9.796875 1.042969 -9.921875 0.910156 -10.007812 C 0.820312 -10.0625 0.6875 -10.109375 0.507812 -10.148438 C 0.328125 -10.1875 0.167969 -10.210938 0.0195312 -10.21875 L 0.0195312 -10.734375 L 3.53125 -10.917969 L 3.640625 -10.804688 L 3.640625 -3.527344 C 3.988281 -3.835938 4.378906 -4.195312 4.8125 -4.605469 C 5.246094 -5.015625 5.59375 -5.351562 5.859375 -5.621094 C 6.011719 -5.78125 6.097656 -5.902344 6.117188 -5.984375 C 6.132812 -6.066406 6.140625 -6.117188 6.140625 -6.136719 C 6.140625 -6.21875 6.066406 -6.292969 5.917969 -6.347656 C 5.769531 -6.402344 5.546875 -6.453125 5.246094 -6.496094 L 5.246094 -6.996094 L 8.828125 -6.996094 L 8.828125 -6.507812 C 8.359375 -6.378906 8.003906 -6.253906 7.757812 -6.140625 C 7.507812 -6.023438 7.242188 -5.871094 6.949219 -5.675781 C 6.757812 -5.550781 6.570312 -5.417969 6.390625 -5.277344 C 6.210938 -5.140625 6.003906 -4.964844 5.769531 -4.757812 C 6.226562 -4.089844 6.652344 -3.472656 7.042969 -2.90625 C 7.433594 -2.335938 7.839844 -1.734375 8.265625 -1.101562 C 8.414062 -0.878906 8.59375 -0.730469 8.808594 -0.65625 C 9.027344 -0.582031 9.242188 -0.535156 9.457031 -0.515625 Z "/>
</g>
</g>
</defs>
<g fill="rgb(87.058824%, 85.882353%, 78.431373%)" fill-opacity="1">
<use xlink:href="#glyph-0-0" x="30" y="33.244141"/>
<use xlink:href="#glyph-0-1" x="40" y="33.244141"/>
<use xlink:href="#glyph-0-1" x="48" y="33.244141"/>
<use xlink:href="#glyph-0-2" x="56" y="33.244141"/>
</g>
</svg>
