<?xml version="1.0" encoding="UTF-8"?>
<svg xmlns="http://www.w3.org/2000/svg" xmlns:xlink="http://www.w3.org/1999/xlink" width="1920" height="1080" viewBox="0 0 1920 1080">
<defs>
<g>
<g id="glyph-0-0">
<path d="M 6.105469 0 L 3.507812 0 L 3.507812 -0.265625 C 3.5625 -0.269531 3.644531 -0.277344 3.753906 -0.285156 C 3.863281 -0.292969 3.9375 -0.308594 3.976562 -0.324219 C 4.0625 -0.359375 4.117188 -0.402344 4.148438 -0.460938 C 4.183594 -0.515625 4.199219 -0.585938 4.199219 -0.671875 L 4.199219 -2.328125 L 2.144531 -2.328125 L 2.144531 -0.707031 C 2.144531 -0.632812 2.160156 -0.5625 2.191406 -0.5 C 2.226562 -0.441406 2.28125 -0.394531 2.359375 -0.359375 C 2.402344 -0.339844 2.476562 -0.320312 2.582031 -0.300781 C 2.683594 -0.28125 2.769531 -0.269531 2.835938 -0.265625 L 2.835938 0 L 0.234375 0 L 0.234375 -0.265625 C 0.289062 -0.265625 0.375 -0.273438 0.484375 -0.285156 C 0.59375 -0.300781 0.671875 -0.3125 0.722656 -0.332031 C 0.804688 -0.363281 0.859375 -0.40625 0.890625 -0.464844 C 0.921875 -0.527344 0.9375 -0.597656 0.9375 -0.679688 L 0.9375 -4.082031 C 0.9375 -4.160156 0.925781 -4.226562 0.898438 -4.28125 C 0.867188 -4.335938 0.808594 -4.382812 0.722656 -4.425781 C 0.65625 -4.453125 0.570312 -4.480469 0.464844 -4.503906 C 0.359375 -4.527344 0.28125 -4.542969 0.234375 -4.546875 L 0.234375 -4.8125 L 2.835938 -4.8125 L 2.835938 -4.546875 C 2.765625 -4.542969 2.679688 -4.53125 2.582031 -4.511719 C 2.488281 -4.496094 2.410156 -4.476562 2.359375 -4.460938 C 2.273438 -4.433594 2.214844 -4.386719 2.183594 -4.320312 C 2.15625 -4.257812 2.144531 -4.1875 2.144531 -4.117188 L 2.144531 -2.679688 L 4.199219 -2.679688 L 4.199219 -4.082031 C 4.199219 -4.160156 4.183594 -4.226562 4.152344 -4.28125 C 4.125 -4.335938 4.066406 -4.382812 3.976562 -4.425781 C 3.917969 -4.453125 3.839844 -4.476562 3.742188 -4.5 C 3.644531 -4.523438 3.566406 -4.539062 3.507812 -4.546875 L 3.507812 -4.8125 L 6.105469 -4.8125 L 6.105469 -4.546875 C 6.035156 -4.542969 5.953125 -4.53125 5.863281 -4.519531 C 5.773438 -4.503906 5.691406 -4.484375 5.617188 -4.460938 C 5.53125 -4.433594 5.476562 -4.386719 5.445312 -4.324219 C 5.414062 -4.257812 5.402344 -4.191406 5.402344 -4.117188 L 5.402344 -0.707031 C 5.402344 -0.628906 5.414062 -0.558594 5.445312 -0.5 C 5.476562 -0.445312 5.53125 -0.398438 5.617188 -0.359375 C 5.671875 -0.335938 5.75 -0.316406 5.855469 -0.296875 C 5.957031 -0.28125 6.039062 -0.269531 6.105469 -0.265625 Z "/>
</g>
<g id="glyph-0-1">
<path d="M 3.839844 -0.808594 C 3.761719 -0.679688 3.667969 -0.558594 3.554688 -0.445312 C 3.441406 -0.332031 3.316406 -0.234375 3.171875 -0.152344 C 3.023438 -0.0664062 2.867188 0 2.714844 0.0429688 C 2.558594 0.0859375 2.382812 0.109375 2.179688 0.109375 C 1.84375 0.109375 1.558594 0.0625 1.3125 -0.0351562 C 1.070312 -0.128906 0.871094 -0.257812 0.710938 -0.417969 C 0.554688 -0.578125 0.4375 -0.765625 0.359375 -0.984375 C 0.28125 -1.203125 0.242188 -1.441406 0.242188 -1.695312 C 0.242188 -1.925781 0.28125 -2.148438 0.367188 -2.359375 C 0.453125 -2.570312 0.574219 -2.757812 0.730469 -2.921875 C 0.882812 -3.082031 1.078125 -3.214844 1.308594 -3.3125 C 1.542969 -3.410156 1.804688 -3.460938 2.09375 -3.460938 C 2.410156 -3.460938 2.671875 -3.421875 2.875 -3.347656 C 3.078125 -3.269531 3.246094 -3.164062 3.378906 -3.027344 C 3.507812 -2.898438 3.601562 -2.746094 3.660156 -2.570312 C 3.71875 -2.398438 3.75 -2.214844 3.75 -2.019531 L 3.75 -1.800781 L 1.457031 -1.800781 C 1.457031 -1.335938 1.546875 -0.984375 1.726562 -0.742188 C 1.90625 -0.5 2.1875 -0.378906 2.578125 -0.378906 C 2.789062 -0.378906 2.980469 -0.4375 3.148438 -0.554688 C 3.320312 -0.671875 3.464844 -0.816406 3.582031 -0.996094 L 3.839844 -0.808594 M 2.546875 -2.097656 C 2.546875 -2.234375 2.539062 -2.375 2.527344 -2.515625 C 2.511719 -2.660156 2.488281 -2.773438 2.453125 -2.863281 C 2.417969 -2.972656 2.363281 -3.050781 2.296875 -3.105469 C 2.230469 -3.160156 2.144531 -3.1875 2.042969 -3.1875 C 1.871094 -3.1875 1.730469 -3.097656 1.628906 -2.921875 C 1.523438 -2.746094 1.46875 -2.46875 1.457031 -2.085938 Z "/>
</g>
<g id="glyph-0-2">
<path d="M 4.070312 -0.0703125 C 3.972656 -0.0273438 3.855469 0.0117188 3.71875 0.046875 C 3.585938 0.0820312 3.441406 0.101562 3.289062 0.101562 C 3.011719 0.101562 2.808594 0.0585938 2.679688 -0.0234375 C 2.546875 -0.105469 2.457031 -0.222656 2.410156 -0.375 L 2.390625 -0.375 C 2.3125 -0.300781 2.238281 -0.234375 2.167969 -0.179688 C 2.097656 -0.125 2.019531 -0.078125 1.9375 -0.0390625 C 1.832031 0.0078125 1.730469 0.046875 1.632812 0.0703125 C 1.53125 0.0976562 1.394531 0.109375 1.21875 0.109375 C 0.957031 0.109375 0.730469 0.03125 0.546875 -0.125 C 0.359375 -0.277344 0.269531 -0.484375 0.269531 -0.742188 C 0.269531 -0.886719 0.289062 -1.011719 0.328125 -1.117188 C 0.371094 -1.21875 0.425781 -1.308594 0.503906 -1.390625 C 0.570312 -1.460938 0.648438 -1.519531 0.738281 -1.570312 C 0.828125 -1.617188 0.925781 -1.660156 1.03125 -1.703125 C 1.234375 -1.777344 1.480469 -1.855469 1.765625 -1.933594 C 2.050781 -2.015625 2.257812 -2.085938 2.390625 -2.148438 L 2.390625 -2.476562 C 2.390625 -2.53125 2.386719 -2.605469 2.375 -2.699219 C 2.367188 -2.792969 2.347656 -2.871094 2.320312 -2.933594 C 2.289062 -3.003906 2.238281 -3.066406 2.171875 -3.117188 C 2.101562 -3.164062 2.011719 -3.191406 1.902344 -3.191406 C 1.800781 -3.191406 1.71875 -3.175781 1.652344 -3.148438 C 1.585938 -3.121094 1.53125 -3.089844 1.492188 -3.0625 C 1.5 -3.015625 1.519531 -2.949219 1.550781 -2.855469 C 1.582031 -2.761719 1.597656 -2.671875 1.597656 -2.585938 C 1.597656 -2.546875 1.585938 -2.5 1.566406 -2.441406 C 1.546875 -2.386719 1.515625 -2.339844 1.476562 -2.304688 C 1.425781 -2.261719 1.367188 -2.226562 1.304688 -2.199219 C 1.238281 -2.175781 1.140625 -2.164062 1.003906 -2.164062 C 0.816406 -2.164062 0.671875 -2.210938 0.574219 -2.300781 C 0.476562 -2.390625 0.425781 -2.511719 0.425781 -2.660156 C 0.425781 -2.785156 0.476562 -2.898438 0.578125 -3 C 0.679688 -3.097656 0.800781 -3.183594 0.945312 -3.25 C 1.089844 -3.316406 1.253906 -3.367188 1.4375 -3.40625 C 1.621094 -3.441406 1.792969 -3.460938 1.953125 -3.460938 C 2.171875 -3.460938 2.375 -3.449219 2.554688 -3.421875 C 2.738281 -3.398438 2.90625 -3.34375 3.050781 -3.261719 C 3.191406 -3.183594 3.304688 -3.066406 3.386719 -2.917969 C 3.46875 -2.765625 3.507812 -2.570312 3.507812 -2.328125 C 3.507812 -2.074219 3.503906 -1.769531 3.492188 -1.421875 C 3.484375 -1.070312 3.480469 -0.839844 3.480469 -0.730469 C 3.480469 -0.628906 3.492188 -0.546875 3.523438 -0.488281 C 3.554688 -0.429688 3.601562 -0.386719 3.664062 -0.355469 C 3.703125 -0.339844 3.765625 -0.328125 3.847656 -0.324219 C 3.929688 -0.320312 4.003906 -0.320312 4.070312 -0.320312 L 4.070312 -0.0703125 M 2.390625 -1.835938 C 2.261719 -1.792969 2.136719 -1.746094 2.011719 -1.691406 C 1.886719 -1.632812 1.785156 -1.574219 1.707031 -1.515625 C 1.621094 -1.453125 1.558594 -1.371094 1.507812 -1.273438 C 1.460938 -1.171875 1.4375 -1.058594 1.4375 -0.921875 C 1.4375 -0.746094 1.476562 -0.617188 1.558594 -0.539062 C 1.640625 -0.460938 1.738281 -0.421875 1.855469 -0.421875 C 1.980469 -0.421875 2.082031 -0.445312 2.164062 -0.496094 C 2.246094 -0.546875 2.316406 -0.609375 2.375 -0.683594 Z "/>
</g>
<g id="glyph-0-3">
<path d="M 4.578125 -0.0703125 L 2.90625 0.0273438 L 2.855469 -0.0195312 L 2.855469 -0.332031 L 2.832031 -0.339844 C 2.71875 -0.21875 2.570312 -0.113281 2.382812 -0.0273438 C 2.195312 0.0625 2.003906 0.109375 1.8125 0.109375 C 1.355469 0.109375 0.980469 -0.0625 0.683594 -0.398438 C 0.386719 -0.738281 0.242188 -1.175781 0.242188 -1.714844 C 0.242188 -2.191406 0.40625 -2.601562 0.738281 -2.941406 C 1.066406 -3.285156 1.46875 -3.453125 1.9375 -3.453125 C 2.121094 -3.453125 2.296875 -3.433594 2.457031 -3.390625 C 2.621094 -3.351562 2.75 -3.300781 2.847656 -3.246094 L 2.847656 -4.355469 C 2.847656 -4.4375 2.832031 -4.515625 2.796875 -4.589844 C 2.761719 -4.664062 2.71875 -4.71875 2.660156 -4.761719 C 2.589844 -4.808594 2.503906 -4.847656 2.398438 -4.867188 C 2.292969 -4.890625 2.1875 -4.902344 2.082031 -4.914062 L 2.082031 -5.160156 L 3.917969 -5.25 L 3.96875 -5.195312 L 3.96875 -0.75 C 3.96875 -0.664062 3.980469 -0.589844 4.007812 -0.53125 C 4.039062 -0.472656 4.082031 -0.425781 4.144531 -0.394531 C 4.191406 -0.367188 4.261719 -0.351562 4.351562 -0.339844 C 4.445312 -0.328125 4.519531 -0.320312 4.578125 -0.320312 L 4.578125 -0.0703125 M 2.847656 -0.675781 L 2.847656 -2.589844 C 2.832031 -2.640625 2.808594 -2.699219 2.78125 -2.761719 C 2.753906 -2.828125 2.714844 -2.886719 2.664062 -2.941406 C 2.621094 -2.992188 2.558594 -3.03125 2.484375 -3.070312 C 2.410156 -3.105469 2.324219 -3.121094 2.230469 -3.121094 C 2.003906 -3.121094 1.820312 -2.996094 1.675781 -2.738281 C 1.53125 -2.484375 1.457031 -2.125 1.457031 -1.65625 C 1.457031 -1.476562 1.472656 -1.308594 1.496094 -1.164062 C 1.523438 -1.019531 1.570312 -0.886719 1.632812 -0.765625 C 1.699219 -0.644531 1.785156 -0.550781 1.886719 -0.484375 C 1.988281 -0.417969 2.113281 -0.382812 2.257812 -0.382812 C 2.394531 -0.382812 2.507812 -0.410156 2.597656 -0.460938 C 2.6875 -0.515625 2.769531 -0.585938 2.847656 -0.675781 Z "/>
</g>
</g>
</defs>
<g fill="rgb(100%, 100%, 100%)" fill-opacity="1">
<use xlink:href="#glyph-0-0" x="30" y="26.367188"/>
<use xlink:href="#glyph-0-1" x="36" y="26.367188"/>
<use xlink:href="#glyph-0-2" x="40" y="26.367188"/>
<use xlink:href="#glyph-0-3" x="44" y="26.367188"/>
</g>
</svg>
