<?xml version="1.0" encoding="UTF-8"?>
<svg xmlns="http://www.w3.org/2000/svg" xmlns:xlink="http://www.w3.org/1999/xlink" width="1920" height="1080" viewBox="0 0 1920 1080">
<defs>
<g>
<g id="glyph-0-0">
<path d="M 3.269531 -1.605469 C 3.4375 -1.492188 3.582031 -1.34375 3.695312 -1.152344 C 3.8125 -0.960938 3.867188 -0.722656 3.867188 -0.441406 C 3.867188 0.0546875 3.675781 0.460938 3.289062 0.777344 C 2.90625 1.09375 2.414062 1.25 1.8125 1.25 C 1.351562 1.25 0.964844 1.152344 0.65625 0.953125 C 0.34375 0.753906 0.191406 0.519531 0.191406 0.246094 C 0.191406 0.0859375 0.242188 -0.046875 0.34375 -0.160156 C 0.445312 -0.269531 0.585938 -0.324219 0.757812 -0.324219 C 0.933594 -0.324219 1.082031 -0.277344 1.195312 -0.179688 C 1.308594 -0.0859375 1.367188 0.0429688 1.367188 0.203125 C 1.367188 0.316406 1.347656 0.441406 1.308594 0.574219 C 1.269531 0.707031 1.238281 0.808594 1.214844 0.878906 C 1.269531 0.898438 1.332031 0.914062 1.402344 0.925781 C 1.476562 0.933594 1.542969 0.9375 1.605469 0.9375 C 1.734375 0.9375 1.863281 0.910156 1.988281 0.851562 C 2.109375 0.796875 2.21875 0.710938 2.304688 0.601562 C 2.40625 0.472656 2.484375 0.324219 2.535156 0.152344 C 2.589844 -0.0234375 2.613281 -0.21875 2.613281 -0.4375 C 2.613281 -0.757812 2.527344 -1.019531 2.359375 -1.222656 C 2.1875 -1.425781 1.964844 -1.527344 1.695312 -1.527344 C 1.484375 -1.527344 1.308594 -1.488281 1.164062 -1.402344 C 1.023438 -1.316406 0.894531 -1.207031 0.78125 -1.066406 L 0.519531 -1.15625 L 0.847656 -3.652344 L 3.710938 -3.652344 L 3.710938 -2.714844 L 1.09375 -2.714844 L 0.953125 -1.597656 C 1.074219 -1.675781 1.230469 -1.746094 1.425781 -1.816406 C 1.617188 -1.886719 1.84375 -1.921875 2.101562 -1.921875 C 2.304688 -1.921875 2.5 -1.902344 2.699219 -1.855469 C 2.894531 -1.8125 3.082031 -1.730469 3.269531 -1.605469 Z "/>
</g>
<g id="glyph-0-1">
<path d="M 4.0625 0 L 1.941406 0 L 1.941406 -0.246094 C 2.054688 -0.253906 2.148438 -0.265625 2.222656 -0.277344 C 2.296875 -0.289062 2.332031 -0.3125 2.332031 -0.351562 C 2.332031 -0.371094 2.324219 -0.398438 2.304688 -0.4375 C 2.285156 -0.476562 2.261719 -0.519531 2.230469 -0.566406 C 2.1875 -0.636719 2.113281 -0.746094 2.007812 -0.898438 C 1.90625 -1.050781 1.804688 -1.191406 1.710938 -1.320312 C 1.582031 -1.167969 1.472656 -1.039062 1.382812 -0.929688 C 1.296875 -0.820312 1.203125 -0.703125 1.105469 -0.578125 C 1.070312 -0.539062 1.046875 -0.5 1.035156 -0.46875 C 1.019531 -0.433594 1.011719 -0.414062 1.011719 -0.40625 C 1.011719 -0.355469 1.050781 -0.316406 1.125 -0.289062 C 1.195312 -0.261719 1.285156 -0.246094 1.386719 -0.246094 L 1.386719 0 L 0.0117188 0 L 0.0117188 -0.246094 C 0.195312 -0.285156 0.339844 -0.347656 0.449219 -0.429688 C 0.558594 -0.515625 0.632812 -0.578125 0.671875 -0.625 C 0.835938 -0.800781 0.976562 -0.949219 1.089844 -1.066406 C 1.207031 -1.183594 1.359375 -1.347656 1.550781 -1.558594 C 1.421875 -1.734375 1.265625 -1.953125 1.085938 -2.210938 C 0.902344 -2.464844 0.75 -2.675781 0.628906 -2.839844 C 0.566406 -2.921875 0.492188 -2.984375 0.402344 -3.03125 C 0.3125 -3.074219 0.199219 -3.101562 0.0585938 -3.117188 L 0.0585938 -3.363281 L 2.128906 -3.363281 L 2.128906 -3.117188 C 2.054688 -3.117188 1.980469 -3.113281 1.910156 -3.101562 C 1.835938 -3.09375 1.800781 -3.078125 1.800781 -3.054688 C 1.800781 -3.035156 1.808594 -3.015625 1.816406 -2.988281 C 1.828125 -2.960938 1.84375 -2.933594 1.863281 -2.902344 C 1.90625 -2.832031 1.972656 -2.722656 2.066406 -2.582031 C 2.15625 -2.445312 2.257812 -2.296875 2.363281 -2.144531 C 2.464844 -2.265625 2.550781 -2.371094 2.617188 -2.449219 C 2.6875 -2.527344 2.777344 -2.640625 2.886719 -2.785156 C 2.925781 -2.839844 2.949219 -2.878906 2.960938 -2.90625 C 2.972656 -2.933594 2.976562 -2.949219 2.976562 -2.957031 C 2.976562 -2.996094 2.953125 -3.03125 2.902344 -3.058594 C 2.855469 -3.089844 2.757812 -3.109375 2.617188 -3.117188 L 2.617188 -3.363281 L 3.96875 -3.363281 L 3.96875 -3.117188 C 3.855469 -3.097656 3.75 -3.0625 3.644531 -3.003906 C 3.539062 -2.949219 3.433594 -2.859375 3.320312 -2.738281 C 3.144531 -2.554688 3.015625 -2.421875 2.933594 -2.339844 C 2.855469 -2.253906 2.722656 -2.113281 2.539062 -1.917969 C 2.640625 -1.769531 2.792969 -1.554688 2.988281 -1.273438 C 3.183594 -0.996094 3.351562 -0.757812 3.496094 -0.566406 C 3.558594 -0.480469 3.625 -0.410156 3.699219 -0.355469 C 3.777344 -0.300781 3.898438 -0.265625 4.0625 -0.246094 Z "/>
</g>
</g>
</defs>
<g fill="rgb(100%, 100%, 100%)" fill-opacity="1">
<use xlink:href="#glyph-0-0" x="30" y="26.367188"/>
<use xlink:href="#glyph-0-1" x="34" y="26.367188"/>
</g>
</svg>
