<?xml version="1.0" encoding="UTF-8"?>
<svg xmlns="http://www.w3.org/2000/svg" xmlns:xlink="http://www.w3.org/1999/xlink" width="1920" height="1080" viewBox="0 0 1920 1080">
<defs>
<g>
<g id="glyph-0-0">
<path d="M 5.457031 0 L 2.835938 0 L 2.835938 -0.265625 C 2.957031 -0.273438 3.101562 -0.296875 3.265625 -0.332031 C 3.429688 -0.367188 3.511719 -0.410156 3.511719 -0.460938 C 3.511719 -0.480469 3.507812 -0.5 3.507812 -0.523438 C 3.503906 -0.542969 3.492188 -0.574219 3.476562 -0.613281 L 3.066406 -1.609375 L 1.40625 -1.609375 C 1.367188 -1.519531 1.324219 -1.410156 1.28125 -1.285156 C 1.234375 -1.160156 1.195312 -1.050781 1.160156 -0.953125 C 1.117188 -0.828125 1.09375 -0.734375 1.082031 -0.679688 C 1.074219 -0.621094 1.070312 -0.582031 1.070312 -0.558594 C 1.070312 -0.488281 1.125 -0.425781 1.238281 -0.375 C 1.347656 -0.324219 1.527344 -0.285156 1.785156 -0.265625 L 1.785156 0 L -0.191406 0 L -0.191406 -0.265625 C -0.117188 -0.269531 -0.03125 -0.28125 0.0625 -0.300781 C 0.15625 -0.320312 0.230469 -0.347656 0.285156 -0.378906 C 0.378906 -0.433594 0.457031 -0.5 0.519531 -0.578125 C 0.585938 -0.660156 0.636719 -0.753906 0.679688 -0.859375 C 0.945312 -1.496094 1.207031 -2.132812 1.46875 -2.769531 C 1.734375 -3.40625 2.023438 -4.109375 2.34375 -4.878906 L 3.019531 -4.878906 C 3.464844 -3.789062 3.8125 -2.929688 4.0625 -2.296875 C 4.3125 -1.664062 4.527344 -1.136719 4.703125 -0.722656 C 4.730469 -0.65625 4.769531 -0.59375 4.816406 -0.539062 C 4.859375 -0.480469 4.925781 -0.429688 5.007812 -0.378906 C 5.070312 -0.34375 5.144531 -0.316406 5.226562 -0.296875 C 5.3125 -0.28125 5.386719 -0.269531 5.457031 -0.265625 L 5.457031 0 M 2.925781 -1.945312 L 2.230469 -3.683594 L 1.542969 -1.945312 Z "/>
</g>
<g id="glyph-0-1">
<path d="M 3.402344 -4.671875 C 3.402344 -4.617188 3.394531 -4.554688 3.378906 -4.484375 C 3.359375 -4.417969 3.328125 -4.359375 3.289062 -4.3125 C 3.242188 -4.257812 3.1875 -4.214844 3.128906 -4.183594 C 3.070312 -4.15625 2.984375 -4.140625 2.863281 -4.140625 C 2.6875 -4.140625 2.546875 -4.203125 2.445312 -4.328125 C 2.34375 -4.449219 2.234375 -4.65625 2.121094 -4.945312 C 2.027344 -4.910156 1.957031 -4.808594 1.898438 -4.648438 C 1.84375 -4.488281 1.8125 -4.144531 1.8125 -3.617188 L 1.8125 -3.351562 L 2.75 -3.351562 L 2.75 -2.980469 L 1.820312 -2.980469 L 1.820312 -0.648438 C 1.820312 -0.558594 1.839844 -0.492188 1.882812 -0.441406 C 1.921875 -0.394531 1.976562 -0.359375 2.042969 -0.335938 C 2.09375 -0.316406 2.167969 -0.300781 2.253906 -0.28125 C 2.34375 -0.265625 2.421875 -0.253906 2.492188 -0.246094 L 2.492188 0 L 0.199219 0 L 0.199219 -0.246094 C 0.257812 -0.253906 0.316406 -0.257812 0.371094 -0.265625 C 0.429688 -0.269531 0.476562 -0.28125 0.519531 -0.296875 C 0.59375 -0.324219 0.644531 -0.363281 0.667969 -0.414062 C 0.695312 -0.464844 0.707031 -0.53125 0.707031 -0.617188 L 0.707031 -2.980469 L 0.0195312 -2.980469 L 0.0195312 -3.351562 L 0.707031 -3.351562 C 0.707031 -3.589844 0.742188 -3.824219 0.8125 -4.050781 C 0.882812 -4.277344 0.992188 -4.480469 1.140625 -4.660156 C 1.28125 -4.835938 1.46875 -4.976562 1.703125 -5.085938 C 1.933594 -5.195312 2.207031 -5.25 2.523438 -5.25 C 2.804688 -5.25 3.019531 -5.195312 3.171875 -5.089844 C 3.328125 -4.984375 3.402344 -4.84375 3.402344 -4.671875 Z "/>
</g>
<g id="glyph-0-2">
<path d="M 2.71875 -0.15625 C 2.574219 -0.09375 2.417969 -0.0351562 2.253906 0.015625 C 2.089844 0.0664062 1.886719 0.0898438 1.652344 0.0898438 C 1.296875 0.0898438 1.035156 0.00390625 0.867188 -0.164062 C 0.695312 -0.335938 0.609375 -0.582031 0.609375 -0.902344 L 0.609375 -2.980469 L 0 -2.980469 L 0 -3.351562 L 0.625 -3.351562 L 0.625 -4.378906 L 1.722656 -4.378906 L 1.722656 -3.351562 L 2.675781 -3.351562 L 2.675781 -2.980469 L 1.730469 -2.980469 L 1.730469 -1.125 C 1.730469 -0.859375 1.765625 -0.671875 1.839844 -0.5625 C 1.914062 -0.453125 2.046875 -0.398438 2.234375 -0.398438 C 2.296875 -0.398438 2.382812 -0.402344 2.492188 -0.410156 C 2.601562 -0.417969 2.675781 -0.429688 2.71875 -0.441406 Z "/>
</g>
<g id="glyph-0-3">
<path d="M 3.839844 -0.808594 C 3.761719 -0.679688 3.667969 -0.558594 3.554688 -0.445312 C 3.441406 -0.332031 3.316406 -0.234375 3.171875 -0.152344 C 3.023438 -0.0664062 2.867188 0 2.714844 0.0429688 C 2.558594 0.0859375 2.382812 0.109375 2.179688 0.109375 C 1.84375 0.109375 1.558594 0.0625 1.3125 -0.0351562 C 1.070312 -0.128906 0.871094 -0.257812 0.710938 -0.417969 C 0.554688 -0.578125 0.4375 -0.765625 0.359375 -0.984375 C 0.28125 -1.203125 0.242188 -1.441406 0.242188 -1.695312 C 0.242188 -1.925781 0.28125 -2.148438 0.367188 -2.359375 C 0.453125 -2.570312 0.574219 -2.757812 0.730469 -2.921875 C 0.882812 -3.082031 1.078125 -3.214844 1.308594 -3.3125 C 1.542969 -3.410156 1.804688 -3.460938 2.09375 -3.460938 C 2.410156 -3.460938 2.671875 -3.421875 2.875 -3.347656 C 3.078125 -3.269531 3.246094 -3.164062 3.378906 -3.027344 C 3.507812 -2.898438 3.601562 -2.746094 3.660156 -2.570312 C 3.71875 -2.398438 3.75 -2.214844 3.75 -2.019531 L 3.75 -1.800781 L 1.457031 -1.800781 C 1.457031 -1.335938 1.546875 -0.984375 1.726562 -0.742188 C 1.90625 -0.5 2.1875 -0.378906 2.578125 -0.378906 C 2.789062 -0.378906 2.980469 -0.4375 3.148438 -0.554688 C 3.320312 -0.671875 3.464844 -0.816406 3.582031 -0.996094 L 3.839844 -0.808594 M 2.546875 -2.097656 C 2.546875 -2.234375 2.539062 -2.375 2.527344 -2.515625 C 2.511719 -2.660156 2.488281 -2.773438 2.453125 -2.863281 C 2.417969 -2.972656 2.363281 -3.050781 2.296875 -3.105469 C 2.230469 -3.160156 2.144531 -3.1875 2.042969 -3.1875 C 1.871094 -3.1875 1.730469 -3.097656 1.628906 -2.921875 C 1.523438 -2.746094 1.46875 -2.46875 1.457031 -2.085938 Z "/>
</g>
<g id="glyph-0-4">
<path d="M 3.574219 -2.742188 C 3.574219 -2.570312 3.519531 -2.421875 3.414062 -2.289062 C 3.308594 -2.160156 3.167969 -2.09375 2.992188 -2.09375 C 2.828125 -2.09375 2.6875 -2.136719 2.574219 -2.21875 C 2.460938 -2.304688 2.402344 -2.425781 2.402344 -2.589844 C 2.402344 -2.667969 2.410156 -2.726562 2.421875 -2.773438 C 2.433594 -2.816406 2.441406 -2.855469 2.453125 -2.894531 C 2.347656 -2.890625 2.238281 -2.855469 2.121094 -2.789062 C 2.007812 -2.722656 1.90625 -2.632812 1.816406 -2.519531 L 1.816406 -0.65625 C 1.816406 -0.578125 1.828125 -0.511719 1.855469 -0.460938 C 1.878906 -0.410156 1.921875 -0.367188 1.980469 -0.339844 C 2.03125 -0.3125 2.109375 -0.292969 2.222656 -0.277344 C 2.335938 -0.257812 2.414062 -0.25 2.464844 -0.246094 L 2.464844 0 L 0.195312 0 L 0.195312 -0.246094 C 0.253906 -0.253906 0.308594 -0.257812 0.367188 -0.265625 C 0.425781 -0.273438 0.476562 -0.285156 0.515625 -0.296875 C 0.585938 -0.324219 0.636719 -0.363281 0.664062 -0.414062 C 0.691406 -0.464844 0.707031 -0.535156 0.707031 -0.617188 L 0.707031 -2.589844 C 0.707031 -2.671875 0.6875 -2.746094 0.648438 -2.808594 C 0.609375 -2.875 0.5625 -2.925781 0.507812 -2.964844 C 0.46875 -2.992188 0.417969 -3.011719 0.355469 -3.03125 C 0.292969 -3.050781 0.222656 -3.0625 0.148438 -3.070312 L 0.148438 -3.316406 L 1.765625 -3.402344 L 1.816406 -3.351562 L 1.816406 -2.863281 L 1.832031 -2.863281 C 1.988281 -3.042969 2.152344 -3.183594 2.328125 -3.289062 C 2.503906 -3.390625 2.683594 -3.441406 2.875 -3.441406 C 3.085938 -3.441406 3.253906 -3.375 3.382812 -3.246094 C 3.511719 -3.117188 3.574219 -2.949219 3.574219 -2.742188 Z "/>
</g>
</g>
</defs>
<g fill="rgb(100%, 100%, 100%)" fill-opacity="1">
<use xlink:href="#glyph-0-0" x="30" y="26.367188"/>
<use xlink:href="#glyph-0-1" x="35" y="26.367188"/>
<use xlink:href="#glyph-0-2" x="38" y="26.367188"/>
<use xlink:href="#glyph-0-3" x="41" y="26.367188"/>
<use xlink:href="#glyph-0-4" x="45" y="26.367188"/>
</g>
</svg>
