<?xml version="1.0" encoding="UTF-8"?>
<svg xmlns="http://www.w3.org/2000/svg" xmlns:xlink="http://www.w3.org/1999/xlink" width="1920" height="1080" viewBox="0 0 1920 1080">
<defs>
<g>
<g id="glyph-0-0">
<path d="M 5.761719 -4.546875 C 5.699219 -4.539062 5.605469 -4.527344 5.488281 -4.507812 C 5.371094 -4.492188 5.265625 -4.449219 5.171875 -4.378906 C 5.085938 -4.316406 5.027344 -4.210938 4.992188 -4.0625 C 4.957031 -3.914062 4.941406 -3.699219 4.941406 -3.410156 L 4.941406 0.0273438 L 4.335938 0.0273438 L 1.339844 -3.691406 L 1.339844 -1.433594 C 1.339844 -1.152344 1.359375 -0.941406 1.394531 -0.796875 C 1.433594 -0.648438 1.492188 -0.542969 1.578125 -0.476562 C 1.636719 -0.425781 1.734375 -0.382812 1.867188 -0.34375 C 2 -0.304688 2.109375 -0.277344 2.1875 -0.265625 L 2.1875 0 L 0.117188 0 L 0.117188 -0.265625 C 0.207031 -0.269531 0.308594 -0.289062 0.421875 -0.3125 C 0.535156 -0.339844 0.632812 -0.378906 0.707031 -0.433594 C 0.796875 -0.5 0.855469 -0.597656 0.890625 -0.730469 C 0.921875 -0.863281 0.9375 -1.085938 0.9375 -1.398438 L 0.9375 -3.675781 C 0.9375 -3.789062 0.921875 -3.894531 0.886719 -3.996094 C 0.851562 -4.097656 0.796875 -4.183594 0.722656 -4.253906 C 0.644531 -4.332031 0.550781 -4.390625 0.449219 -4.4375 C 0.347656 -4.480469 0.230469 -4.515625 0.0976562 -4.539062 L 0.0976562 -4.8125 L 1.910156 -4.8125 L 4.539062 -1.558594 L 4.539062 -3.378906 C 4.539062 -3.667969 4.519531 -3.882812 4.480469 -4.023438 C 4.445312 -4.164062 4.382812 -4.269531 4.300781 -4.335938 C 4.234375 -4.390625 4.136719 -4.433594 4.007812 -4.46875 C 3.878906 -4.507812 3.773438 -4.535156 3.695312 -4.546875 L 3.695312 -4.8125 L 5.761719 -4.8125 Z "/>
</g>
<g id="glyph-0-1">
<path d="M 3.660156 -2.964844 C 3.824219 -2.808594 3.953125 -2.621094 4.042969 -2.402344 C 4.128906 -2.1875 4.175781 -1.953125 4.175781 -1.699219 C 4.175781 -1.449219 4.128906 -1.210938 4.042969 -0.988281 C 3.957031 -0.765625 3.828125 -0.574219 3.660156 -0.417969 C 3.484375 -0.246094 3.269531 -0.117188 3.023438 -0.0273438 C 2.773438 0.0625 2.492188 0.109375 2.171875 0.109375 C 1.898438 0.109375 1.644531 0.0703125 1.414062 -0.0117188 C 1.179688 -0.0898438 0.976562 -0.207031 0.796875 -0.367188 C 0.625 -0.519531 0.488281 -0.703125 0.390625 -0.925781 C 0.289062 -1.148438 0.242188 -1.398438 0.242188 -1.675781 C 0.242188 -1.945312 0.285156 -2.1875 0.371094 -2.398438 C 0.457031 -2.609375 0.589844 -2.796875 0.761719 -2.964844 C 0.929688 -3.121094 1.136719 -3.246094 1.382812 -3.332031 C 1.625 -3.417969 1.902344 -3.460938 2.203125 -3.460938 C 2.519531 -3.460938 2.800781 -3.417969 3.039062 -3.332031 C 3.28125 -3.246094 3.488281 -3.121094 3.660156 -2.964844 M 2.789062 -0.613281 C 2.839844 -0.742188 2.875 -0.894531 2.902344 -1.074219 C 2.925781 -1.253906 2.9375 -1.464844 2.9375 -1.707031 C 2.9375 -1.863281 2.925781 -2.042969 2.902344 -2.246094 C 2.878906 -2.453125 2.847656 -2.613281 2.800781 -2.730469 C 2.746094 -2.871094 2.671875 -2.984375 2.574219 -3.066406 C 2.480469 -3.148438 2.359375 -3.1875 2.210938 -3.1875 C 2.050781 -3.1875 1.921875 -3.144531 1.824219 -3.054688 C 1.730469 -2.96875 1.65625 -2.851562 1.605469 -2.710938 C 1.554688 -2.582031 1.523438 -2.433594 1.503906 -2.261719 C 1.488281 -2.085938 1.476562 -1.90625 1.476562 -1.71875 C 1.476562 -1.472656 1.484375 -1.269531 1.503906 -1.105469 C 1.519531 -0.945312 1.554688 -0.785156 1.617188 -0.621094 C 1.667969 -0.480469 1.742188 -0.371094 1.839844 -0.289062 C 1.9375 -0.207031 2.0625 -0.167969 2.210938 -0.167969 C 2.347656 -0.167969 2.460938 -0.203125 2.558594 -0.28125 C 2.65625 -0.355469 2.734375 -0.464844 2.789062 -0.613281 Z "/>
</g>
<g id="glyph-0-2">
<path d="M 4.578125 -0.0703125 L 2.90625 0.0273438 L 2.855469 -0.0195312 L 2.855469 -0.332031 L 2.832031 -0.339844 C 2.71875 -0.21875 2.570312 -0.113281 2.382812 -0.0273438 C 2.195312 0.0625 2.003906 0.109375 1.8125 0.109375 C 1.355469 0.109375 0.980469 -0.0625 0.683594 -0.398438 C 0.386719 -0.738281 0.242188 -1.175781 0.242188 -1.714844 C 0.242188 -2.191406 0.40625 -2.601562 0.738281 -2.941406 C 1.066406 -3.285156 1.46875 -3.453125 1.9375 -3.453125 C 2.121094 -3.453125 2.296875 -3.433594 2.457031 -3.390625 C 2.621094 -3.351562 2.75 -3.300781 2.847656 -3.246094 L 2.847656 -4.355469 C 2.847656 -4.4375 2.832031 -4.515625 2.796875 -4.589844 C 2.761719 -4.664062 2.71875 -4.71875 2.660156 -4.761719 C 2.589844 -4.808594 2.503906 -4.847656 2.398438 -4.867188 C 2.292969 -4.890625 2.1875 -4.902344 2.082031 -4.914062 L 2.082031 -5.160156 L 3.917969 -5.25 L 3.96875 -5.195312 L 3.96875 -0.75 C 3.96875 -0.664062 3.980469 -0.589844 4.007812 -0.53125 C 4.039062 -0.472656 4.082031 -0.425781 4.144531 -0.394531 C 4.191406 -0.367188 4.261719 -0.351562 4.351562 -0.339844 C 4.445312 -0.328125 4.519531 -0.320312 4.578125 -0.320312 L 4.578125 -0.0703125 M 2.847656 -0.675781 L 2.847656 -2.589844 C 2.832031 -2.640625 2.808594 -2.699219 2.78125 -2.761719 C 2.753906 -2.828125 2.714844 -2.886719 2.664062 -2.941406 C 2.621094 -2.992188 2.558594 -3.03125 2.484375 -3.070312 C 2.410156 -3.105469 2.324219 -3.121094 2.230469 -3.121094 C 2.003906 -3.121094 1.820312 -2.996094 1.675781 -2.738281 C 1.53125 -2.484375 1.457031 -2.125 1.457031 -1.65625 C 1.457031 -1.476562 1.472656 -1.308594 1.496094 -1.164062 C 1.523438 -1.019531 1.570312 -0.886719 1.632812 -0.765625 C 1.699219 -0.644531 1.785156 -0.550781 1.886719 -0.484375 C 1.988281 -0.417969 2.113281 -0.382812 2.257812 -0.382812 C 2.394531 -0.382812 2.507812 -0.410156 2.597656 -0.460938 C 2.6875 -0.515625 2.769531 -0.585938 2.847656 -0.675781 Z "/>
</g>
<g id="glyph-0-3">
<path d="M 3.839844 -0.808594 C 3.761719 -0.679688 3.667969 -0.558594 3.554688 -0.445312 C 3.441406 -0.332031 3.316406 -0.234375 3.171875 -0.152344 C 3.023438 -0.0664062 2.867188 0 2.714844 0.0429688 C 2.558594 0.0859375 2.382812 0.109375 2.179688 0.109375 C 1.84375 0.109375 1.558594 0.0625 1.3125 -0.0351562 C 1.070312 -0.128906 0.871094 -0.257812 0.710938 -0.417969 C 0.554688 -0.578125 0.4375 -0.765625 0.359375 -0.984375 C 0.28125 -1.203125 0.242188 -1.441406 0.242188 -1.695312 C 0.242188 -1.925781 0.28125 -2.148438 0.367188 -2.359375 C 0.453125 -2.570312 0.574219 -2.757812 0.730469 -2.921875 C 0.882812 -3.082031 1.078125 -3.214844 1.308594 -3.3125 C 1.542969 -3.410156 1.804688 -3.460938 2.09375 -3.460938 C 2.410156 -3.460938 2.671875 -3.421875 2.875 -3.347656 C 3.078125 -3.269531 3.246094 -3.164062 3.378906 -3.027344 C 3.507812 -2.898438 3.601562 -2.746094 3.660156 -2.570312 C 3.71875 -2.398438 3.75 -2.214844 3.75 -2.019531 L 3.75 -1.800781 L 1.457031 -1.800781 C 1.457031 -1.335938 1.546875 -0.984375 1.726562 -0.742188 C 1.90625 -0.5 2.1875 -0.378906 2.578125 -0.378906 C 2.789062 -0.378906 2.980469 -0.4375 3.148438 -0.554688 C 3.320312 -0.671875 3.464844 -0.816406 3.582031 -0.996094 L 3.839844 -0.808594 M 2.546875 -2.097656 C 2.546875 -2.234375 2.539062 -2.375 2.527344 -2.515625 C 2.511719 -2.660156 2.488281 -2.773438 2.453125 -2.863281 C 2.417969 -2.972656 2.363281 -3.050781 2.296875 -3.105469 C 2.230469 -3.160156 2.144531 -3.1875 2.042969 -3.1875 C 1.871094 -3.1875 1.730469 -3.097656 1.628906 -2.921875 C 1.523438 -2.746094 1.46875 -2.46875 1.457031 -2.085938 Z "/>
</g>
<g id="glyph-0-4">
</g>
<g id="glyph-0-5">
<path d="M 4.046875 0 L 0.371094 0 L 0.371094 -0.613281 C 0.535156 -0.777344 0.710938 -0.925781 0.902344 -1.058594 C 1.09375 -1.195312 1.285156 -1.3125 1.484375 -1.417969 C 1.695312 -1.527344 1.871094 -1.625 2.011719 -1.714844 C 2.15625 -1.800781 2.269531 -1.890625 2.347656 -1.988281 C 2.429688 -2.074219 2.488281 -2.171875 2.523438 -2.273438 C 2.558594 -2.378906 2.578125 -2.496094 2.578125 -2.625 C 2.578125 -2.910156 2.507812 -3.121094 2.371094 -3.25 C 2.238281 -3.382812 2.054688 -3.449219 1.832031 -3.449219 C 1.761719 -3.449219 1.695312 -3.441406 1.632812 -3.433594 C 1.570312 -3.421875 1.503906 -3.402344 1.4375 -3.378906 C 1.472656 -3.273438 1.503906 -3.171875 1.535156 -3.0625 C 1.566406 -2.953125 1.582031 -2.832031 1.582031 -2.699219 C 1.582031 -2.539062 1.527344 -2.410156 1.410156 -2.316406 C 1.296875 -2.222656 1.148438 -2.171875 0.96875 -2.171875 C 0.800781 -2.171875 0.664062 -2.230469 0.566406 -2.339844 C 0.464844 -2.449219 0.414062 -2.585938 0.414062 -2.742188 C 0.414062 -3.019531 0.574219 -3.257812 0.894531 -3.457031 C 1.214844 -3.660156 1.605469 -3.761719 2.066406 -3.761719 C 2.601562 -3.761719 3.03125 -3.667969 3.363281 -3.484375 C 3.691406 -3.300781 3.855469 -3.007812 3.855469 -2.601562 C 3.855469 -2.390625 3.8125 -2.222656 3.722656 -2.09375 C 3.636719 -1.964844 3.507812 -1.851562 3.339844 -1.753906 C 3.1875 -1.664062 3.019531 -1.59375 2.835938 -1.535156 C 2.652344 -1.480469 2.453125 -1.425781 2.246094 -1.375 C 2.019531 -1.316406 1.824219 -1.257812 1.660156 -1.195312 C 1.492188 -1.128906 1.347656 -1.054688 1.21875 -0.964844 L 1.21875 -0.929688 L 4.046875 -0.929688 Z "/>
</g>
</g>
</defs>
<g fill="rgb(100%, 100%, 100%)" fill-opacity="1">
<use xlink:href="#glyph-0-0" x="30" y="26.367188"/>
<use xlink:href="#glyph-0-1" x="36" y="26.367188"/>
<use xlink:href="#glyph-0-2" x="40" y="26.367188"/>
<use xlink:href="#glyph-0-3" x="45" y="26.367188"/>
<use xlink:href="#glyph-0-4" x="49" y="26.367188"/>
<use xlink:href="#glyph-0-5" x="51" y="26.367188"/>
</g>
</svg>
