<?xml version="1.0" encoding="UTF-8"?>
<svg xmlns="http://www.w3.org/2000/svg" xmlns:xlink="http://www.w3.org/1999/xlink" width="1920" height="1080" viewBox="0 0 1920 1080">
<defs>
<g>
<g id="glyph-0-0">
<path d="M 12.011719 -9.457031 C 11.875 -9.445312 11.679688 -9.410156 11.421875 -9.363281 C 11.164062 -9.3125 10.949219 -9.226562 10.777344 -9.105469 C 10.597656 -8.988281 10.472656 -8.777344 10.398438 -8.46875 C 10.328125 -8.164062 10.289062 -7.707031 10.289062 -7.09375 L 10.289062 -3.371094 C 10.289062 -2.277344 9.917969 -1.394531 9.175781 -0.726562 C 8.433594 -0.0585938 7.449219 0.273438 6.226562 0.273438 C 4.804688 0.273438 3.699219 -0.046875 2.917969 -0.691406 C 2.140625 -1.335938 1.75 -2.234375 1.75 -3.386719 L 1.75 -8.503906 C 1.75 -8.671875 1.71875 -8.8125 1.652344 -8.929688 C 1.589844 -9.046875 1.46875 -9.152344 1.289062 -9.246094 C 1.167969 -9.308594 1.019531 -9.355469 0.839844 -9.394531 C 0.660156 -9.433594 0.515625 -9.457031 0.402344 -9.472656 L 0.402344 -10.007812 L 5.648438 -10.007812 L 5.648438 -9.472656 C 5.5 -9.460938 5.347656 -9.445312 5.191406 -9.417969 C 5.035156 -9.394531 4.878906 -9.355469 4.71875 -9.300781 C 4.539062 -9.246094 4.417969 -9.152344 4.359375 -9.019531 C 4.296875 -8.890625 4.265625 -8.742188 4.265625 -8.574219 L 4.265625 -3.527344 C 4.265625 -2.535156 4.484375 -1.8125 4.921875 -1.359375 C 5.359375 -0.910156 5.992188 -0.683594 6.824219 -0.683594 C 7.640625 -0.683594 8.28125 -0.933594 8.746094 -1.433594 C 9.210938 -1.929688 9.445312 -2.664062 9.445312 -3.632812 L 9.445312 -7.023438 C 9.445312 -7.625 9.402344 -8.078125 9.320312 -8.375 C 9.238281 -8.671875 9.113281 -8.890625 8.941406 -9.019531 C 8.820312 -9.125 8.609375 -9.21875 8.304688 -9.300781 C 8 -9.386719 7.789062 -9.4375 7.667969 -9.457031 L 7.667969 -10.007812 L 12.011719 -10.007812 Z "/>
</g>
<g id="glyph-0-1">
<path d="M 9.71875 0 L 5.480469 0 L 5.480469 -0.515625 C 5.570312 -0.523438 5.675781 -0.535156 5.804688 -0.550781 C 5.929688 -0.5625 6.027344 -0.585938 6.09375 -0.621094 C 6.191406 -0.671875 6.261719 -0.746094 6.304688 -0.847656 C 6.347656 -0.945312 6.367188 -1.089844 6.367188 -1.285156 L 6.367188 -4.585938 C 6.367188 -5.0625 6.28125 -5.425781 6.101562 -5.667969 C 5.925781 -5.910156 5.667969 -6.03125 5.320312 -6.03125 C 5.132812 -6.03125 4.957031 -6 4.796875 -5.945312 C 4.632812 -5.890625 4.472656 -5.808594 4.316406 -5.699219 C 4.179688 -5.605469 4.070312 -5.507812 3.988281 -5.410156 C 3.90625 -5.3125 3.835938 -5.222656 3.78125 -5.148438 L 3.78125 -1.359375 C 3.78125 -1.195312 3.804688 -1.058594 3.851562 -0.949219 C 3.898438 -0.839844 3.976562 -0.753906 4.082031 -0.699219 C 4.160156 -0.65625 4.253906 -0.617188 4.367188 -0.585938 C 4.476562 -0.550781 4.589844 -0.527344 4.695312 -0.515625 L 4.695312 0 L 0.410156 0 L 0.410156 -0.515625 C 0.527344 -0.523438 0.644531 -0.539062 0.765625 -0.554688 C 0.886719 -0.570312 0.988281 -0.59375 1.070312 -0.621094 C 1.222656 -0.671875 1.324219 -0.753906 1.382812 -0.859375 C 1.4375 -0.96875 1.46875 -1.109375 1.46875 -1.285156 L 1.46875 -5.386719 C 1.46875 -5.535156 1.429688 -5.675781 1.355469 -5.820312 C 1.277344 -5.960938 1.179688 -6.074219 1.058594 -6.164062 C 0.972656 -6.21875 0.867188 -6.265625 0.738281 -6.304688 C 0.609375 -6.34375 0.464844 -6.367188 0.308594 -6.382812 L 0.308594 -6.898438 L 3.675781 -7.082031 L 3.78125 -6.976562 L 3.78125 -5.953125 L 3.808594 -5.953125 C 3.941406 -6.070312 4.101562 -6.210938 4.289062 -6.375 C 4.476562 -6.539062 4.648438 -6.675781 4.808594 -6.777344 C 4.984375 -6.890625 5.210938 -6.988281 5.492188 -7.066406 C 5.777344 -7.148438 6.078125 -7.1875 6.398438 -7.1875 C 7.164062 -7.1875 7.738281 -6.96875 8.121094 -6.535156 C 8.503906 -6.097656 8.695312 -5.523438 8.695312 -4.804688 L 8.695312 -1.347656 C 8.695312 -1.171875 8.722656 -1.035156 8.773438 -0.929688 C 8.824219 -0.828125 8.921875 -0.746094 9.0625 -0.683594 C 9.136719 -0.652344 9.230469 -0.617188 9.339844 -0.585938 C 9.453125 -0.550781 9.578125 -0.527344 9.71875 -0.515625 Z "/>
</g>
<g id="glyph-0-2">
<path d="M 9.519531 -0.148438 L 6.042969 0.0546875 L 5.9375 -0.0429688 L 5.9375 -0.691406 L 5.890625 -0.707031 C 5.660156 -0.457031 5.347656 -0.238281 4.957031 -0.0546875 C 4.5625 0.132812 4.167969 0.226562 3.769531 0.226562 C 2.820312 0.226562 2.039062 -0.125 1.421875 -0.832031 C 0.808594 -1.539062 0.5 -2.449219 0.5 -3.570312 C 0.5 -4.5625 0.84375 -5.410156 1.53125 -6.121094 C 2.21875 -6.832031 3.054688 -7.1875 4.03125 -7.1875 C 4.414062 -7.1875 4.777344 -7.144531 5.113281 -7.054688 C 5.453125 -6.96875 5.722656 -6.867188 5.925781 -6.75 L 5.925781 -9.054688 C 5.925781 -9.230469 5.890625 -9.394531 5.820312 -9.546875 C 5.746094 -9.699219 5.652344 -9.816406 5.535156 -9.902344 C 5.390625 -10.003906 5.207031 -10.078125 4.988281 -10.125 C 4.769531 -10.167969 4.550781 -10.199219 4.332031 -10.21875 L 4.332031 -10.734375 L 8.144531 -10.917969 L 8.25 -10.804688 L 8.25 -1.558594 C 8.25 -1.378906 8.28125 -1.230469 8.339844 -1.105469 C 8.398438 -0.984375 8.492188 -0.886719 8.625 -0.816406 C 8.722656 -0.765625 8.867188 -0.730469 9.054688 -0.707031 C 9.242188 -0.683594 9.398438 -0.667969 9.519531 -0.664062 L 9.519531 -0.148438 M 5.925781 -1.402344 L 5.925781 -5.386719 C 5.890625 -5.496094 5.847656 -5.617188 5.785156 -5.746094 C 5.726562 -5.878906 5.648438 -6.003906 5.542969 -6.121094 C 5.449219 -6.21875 5.324219 -6.308594 5.167969 -6.382812 C 5.011719 -6.457031 4.832031 -6.496094 4.636719 -6.496094 C 4.167969 -6.496094 3.78125 -6.230469 3.484375 -5.699219 C 3.183594 -5.167969 3.03125 -4.417969 3.03125 -3.449219 C 3.03125 -3.066406 3.058594 -2.726562 3.113281 -2.421875 C 3.167969 -2.121094 3.261719 -1.84375 3.398438 -1.59375 C 3.535156 -1.34375 3.710938 -1.148438 3.921875 -1.007812 C 4.136719 -0.867188 4.394531 -0.796875 4.691406 -0.796875 C 4.980469 -0.796875 5.214844 -0.851562 5.402344 -0.960938 C 5.589844 -1.074219 5.765625 -1.21875 5.925781 -1.402344 Z "/>
</g>
<g id="glyph-0-3">
<path d="M 7.609375 -6.164062 C 7.957031 -5.839844 8.222656 -5.453125 8.40625 -5 C 8.589844 -4.550781 8.683594 -4.058594 8.683594 -3.535156 C 8.683594 -3.011719 8.589844 -2.519531 8.410156 -2.054688 C 8.230469 -1.59375 7.964844 -1.195312 7.617188 -0.867188 C 7.246094 -0.515625 6.800781 -0.246094 6.289062 -0.0546875 C 5.773438 0.132812 5.183594 0.226562 4.519531 0.226562 C 3.945312 0.226562 3.417969 0.144531 2.9375 -0.0195312 C 2.457031 -0.1875 2.027344 -0.433594 1.65625 -0.761719 C 1.300781 -1.078125 1.019531 -1.464844 0.8125 -1.929688 C 0.605469 -2.390625 0.5 -2.910156 0.5 -3.484375 C 0.5 -4.046875 0.589844 -4.550781 0.773438 -4.988281 C 0.953125 -5.429688 1.226562 -5.820312 1.585938 -6.164062 C 1.933594 -6.492188 2.363281 -6.75 2.875 -6.929688 C 3.382812 -7.109375 3.953125 -7.199219 4.585938 -7.199219 C 5.242188 -7.199219 5.820312 -7.109375 6.324219 -6.929688 C 6.824219 -6.75 7.253906 -6.492188 7.609375 -6.164062 M 5.804688 -1.277344 C 5.90625 -1.539062 5.984375 -1.859375 6.035156 -2.234375 C 6.082031 -2.613281 6.109375 -3.050781 6.109375 -3.546875 C 6.109375 -3.875 6.085938 -4.253906 6.039062 -4.675781 C 5.988281 -5.097656 5.917969 -5.433594 5.824219 -5.675781 C 5.710938 -5.972656 5.554688 -6.207031 5.355469 -6.375 C 5.15625 -6.546875 4.902344 -6.628906 4.597656 -6.628906 C 4.265625 -6.628906 3.996094 -6.539062 3.796875 -6.355469 C 3.597656 -6.171875 3.445312 -5.933594 3.335938 -5.640625 C 3.238281 -5.375 3.167969 -5.058594 3.132812 -4.699219 C 3.09375 -4.339844 3.074219 -3.964844 3.074219 -3.574219 C 3.074219 -3.0625 3.089844 -2.640625 3.125 -2.300781 C 3.15625 -1.964844 3.238281 -1.628906 3.363281 -1.289062 C 3.472656 -1 3.628906 -0.769531 3.828125 -0.597656 C 4.03125 -0.429688 4.289062 -0.34375 4.597656 -0.34375 C 4.878906 -0.34375 5.121094 -0.425781 5.324219 -0.582031 C 5.527344 -0.738281 5.6875 -0.972656 5.804688 -1.277344 Z "/>
</g>
<g id="glyph-0-4">
</g>
<g id="glyph-0-5">
<path d="M 4.683594 0.273438 C 4.070312 0.273438 3.5 0.199219 2.972656 0.046875 C 2.445312 -0.105469 1.996094 -0.285156 1.628906 -0.492188 L 1.140625 0 L 0.542969 0 L 0.453125 -3.617188 L 1.058594 -3.617188 C 1.195312 -3.273438 1.367188 -2.910156 1.578125 -2.53125 C 1.792969 -2.148438 2.035156 -1.804688 2.3125 -1.503906 C 2.601562 -1.1875 2.921875 -0.933594 3.277344 -0.734375 C 3.632812 -0.535156 4.046875 -0.4375 4.519531 -0.4375 C 5.160156 -0.4375 5.652344 -0.59375 5.992188 -0.90625 C 6.332031 -1.21875 6.503906 -1.613281 6.503906 -2.089844 C 6.503906 -2.480469 6.359375 -2.808594 6.070312 -3.074219 C 5.78125 -3.339844 5.332031 -3.570312 4.726562 -3.761719 C 4.332031 -3.890625 3.96875 -4.007812 3.636719 -4.117188 C 3.304688 -4.226562 2.992188 -4.335938 2.703125 -4.449219 C 2.027344 -4.71875 1.527344 -5.101562 1.203125 -5.601562 C 0.875 -6.101562 0.710938 -6.65625 0.710938 -7.273438 C 0.710938 -7.664062 0.796875 -8.039062 0.964844 -8.402344 C 1.136719 -8.761719 1.382812 -9.085938 1.707031 -9.371094 C 2.015625 -9.640625 2.414062 -9.859375 2.898438 -10.027344 C 3.382812 -10.199219 3.910156 -10.28125 4.476562 -10.28125 C 5.035156 -10.28125 5.554688 -10.207031 6.039062 -10.050781 C 6.519531 -9.894531 6.902344 -9.738281 7.179688 -9.585938 L 7.609375 -10.007812 L 8.222656 -10.007812 L 8.28125 -6.59375 L 7.671875 -6.59375 C 7.53125 -6.960938 7.367188 -7.335938 7.175781 -7.722656 C 6.984375 -8.105469 6.785156 -8.425781 6.574219 -8.679688 C 6.34375 -8.953125 6.078125 -9.171875 5.777344 -9.332031 C 5.476562 -9.496094 5.121094 -9.578125 4.71875 -9.578125 C 4.210938 -9.578125 3.796875 -9.433594 3.472656 -9.148438 C 3.152344 -8.859375 2.992188 -8.503906 2.992188 -8.078125 C 2.992188 -7.679688 3.128906 -7.351562 3.410156 -7.097656 C 3.691406 -6.84375 4.125 -6.621094 4.71875 -6.425781 C 5.066406 -6.308594 5.421875 -6.191406 5.785156 -6.074219 C 6.144531 -5.957031 6.46875 -5.84375 6.75 -5.734375 C 7.429688 -5.472656 7.949219 -5.109375 8.304688 -4.644531 C 8.660156 -4.179688 8.835938 -3.605469 8.835938 -2.917969 C 8.835938 -2.484375 8.734375 -2.066406 8.535156 -1.660156 C 8.332031 -1.253906 8.058594 -0.917969 7.714844 -0.648438 C 7.339844 -0.351562 6.90625 -0.125 6.410156 0.0351562 C 5.917969 0.195312 5.339844 0.273438 4.683594 0.273438 Z "/>
</g>
<g id="glyph-0-6">
<path d="M 8.378906 -6.480469 C 8.167969 -6.449219 7.960938 -6.367188 7.761719 -6.242188 C 7.5625 -6.113281 7.394531 -5.917969 7.265625 -5.648438 C 6.859375 -4.792969 6.445312 -3.882812 6.015625 -2.917969 C 5.589844 -1.949219 5.113281 -0.90625 4.589844 0.21875 C 4.300781 0.847656 4.019531 1.351562 3.746094 1.726562 C 3.472656 2.105469 3.214844 2.394531 2.976562 2.59375 C 2.75 2.785156 2.527344 2.917969 2.304688 3.003906 C 2.085938 3.089844 1.863281 3.132812 1.636719 3.132812 C 1.191406 3.132812 0.828125 3.007812 0.554688 2.757812 C 0.277344 2.507812 0.140625 2.230469 0.140625 1.917969 C 0.140625 1.785156 0.15625 1.664062 0.1875 1.550781 C 0.21875 1.4375 0.28125 1.320312 0.378906 1.199219 C 0.457031 1.09375 0.570312 1.007812 0.730469 0.933594 C 0.886719 0.863281 1.0625 0.824219 1.261719 0.824219 C 1.523438 0.824219 1.777344 0.917969 2.015625 1.101562 C 2.253906 1.285156 2.503906 1.539062 2.761719 1.863281 C 2.917969 1.707031 3.109375 1.472656 3.335938 1.164062 C 3.566406 0.855469 3.734375 0.539062 3.839844 0.214844 C 3.28125 -0.960938 2.785156 -1.980469 2.355469 -2.839844 C 1.921875 -3.703125 1.4375 -4.664062 0.902344 -5.726562 C 0.785156 -5.953125 0.628906 -6.128906 0.429688 -6.253906 C 0.234375 -6.375 0.0234375 -6.453125 -0.199219 -6.480469 L -0.199219 -6.996094 L 4.117188 -6.996094 L 4.117188 -6.480469 C 3.960938 -6.476562 3.773438 -6.441406 3.566406 -6.375 C 3.359375 -6.308594 3.253906 -6.226562 3.253906 -6.121094 C 3.253906 -6.085938 3.261719 -6.042969 3.273438 -6 C 3.289062 -5.953125 3.316406 -5.890625 3.351562 -5.804688 C 3.511719 -5.476562 3.738281 -5.019531 4.03125 -4.4375 C 4.324219 -3.851562 4.667969 -3.167969 5.058594 -2.386719 C 5.347656 -3.050781 5.597656 -3.625 5.800781 -4.105469 C 6.003906 -4.585938 6.203125 -5.058594 6.394531 -5.523438 C 6.441406 -5.640625 6.46875 -5.734375 6.476562 -5.800781 C 6.484375 -5.867188 6.488281 -5.914062 6.488281 -5.9375 C 6.488281 -6.023438 6.445312 -6.097656 6.363281 -6.160156 C 6.28125 -6.222656 6.183594 -6.277344 6.070312 -6.328125 C 5.953125 -6.375 5.839844 -6.410156 5.734375 -6.433594 C 5.625 -6.457031 5.535156 -6.472656 5.464844 -6.480469 L 5.464844 -6.996094 L 8.378906 -6.996094 Z "/>
</g>
<g id="glyph-0-7">
<path d="M 3.675781 0.238281 C 3.21875 0.238281 2.773438 0.171875 2.339844 0.0390625 C 1.902344 -0.09375 1.566406 -0.238281 1.324219 -0.386719 L 1.113281 0.0898438 L 0.5625 0.0898438 L 0.472656 -2.539062 L 0.988281 -2.539062 C 1.058594 -2.328125 1.175781 -2.089844 1.339844 -1.824219 C 1.503906 -1.558594 1.691406 -1.320312 1.902344 -1.105469 C 2.125 -0.894531 2.378906 -0.71875 2.664062 -0.570312 C 2.945312 -0.425781 3.25 -0.351562 3.574219 -0.351562 C 4.003906 -0.351562 4.320312 -0.4375 4.53125 -0.601562 C 4.742188 -0.769531 4.84375 -1.027344 4.84375 -1.375 C 4.84375 -1.5625 4.796875 -1.71875 4.703125 -1.839844 C 4.609375 -1.964844 4.480469 -2.070312 4.316406 -2.15625 C 4.132812 -2.253906 3.933594 -2.332031 3.714844 -2.398438 C 3.496094 -2.464844 3.226562 -2.542969 2.90625 -2.636719 C 2.585938 -2.730469 2.3125 -2.828125 2.085938 -2.921875 C 1.855469 -3.019531 1.621094 -3.171875 1.375 -3.378906 C 1.164062 -3.5625 0.996094 -3.78125 0.867188 -4.042969 C 0.742188 -4.300781 0.675781 -4.609375 0.675781 -4.964844 C 0.675781 -5.628906 0.957031 -6.164062 1.511719 -6.574219 C 2.070312 -6.980469 2.800781 -7.1875 3.703125 -7.1875 C 4.128906 -7.1875 4.523438 -7.144531 4.882812 -7.054688 C 5.242188 -6.96875 5.546875 -6.875 5.789062 -6.769531 L 5.9375 -7.1875 L 6.472656 -7.1875 L 6.585938 -4.78125 L 6.09375 -4.78125 C 5.929688 -5.269531 5.648438 -5.691406 5.246094 -6.046875 C 4.847656 -6.402344 4.417969 -6.582031 3.957031 -6.582031 C 3.59375 -6.582031 3.308594 -6.503906 3.101562 -6.355469 C 2.894531 -6.203125 2.792969 -5.996094 2.792969 -5.726562 C 2.792969 -5.371094 2.945312 -5.109375 3.246094 -4.949219 C 3.550781 -4.792969 3.972656 -4.640625 4.519531 -4.5 C 5.359375 -4.285156 5.972656 -3.988281 6.363281 -3.613281 C 6.753906 -3.242188 6.945312 -2.765625 6.945312 -2.1875 C 6.945312 -1.414062 6.644531 -0.816406 6.039062 -0.394531 C 5.4375 0.0273438 4.648438 0.238281 3.675781 0.238281 Z "/>
</g>
<g id="glyph-0-8">
<path d="M 5.65625 -0.324219 C 5.355469 -0.191406 5.035156 -0.0742188 4.691406 0.03125 C 4.347656 0.136719 3.929688 0.191406 3.433594 0.191406 C 2.703125 0.191406 2.15625 0.0117188 1.800781 -0.34375 C 1.445312 -0.703125 1.269531 -1.210938 1.269531 -1.875 L 1.269531 -6.199219 L 0 -6.199219 L 0 -6.96875 L 1.296875 -6.96875 L 1.296875 -9.105469 L 3.582031 -9.105469 L 3.582031 -6.96875 L 5.566406 -6.96875 L 5.566406 -6.199219 L 3.597656 -6.199219 L 3.597656 -2.339844 C 3.597656 -1.789062 3.671875 -1.402344 3.828125 -1.171875 C 3.980469 -0.941406 4.253906 -0.824219 4.652344 -0.824219 C 4.777344 -0.824219 4.957031 -0.835938 5.183594 -0.851562 C 5.410156 -0.871094 5.566406 -0.894531 5.65625 -0.917969 Z "/>
</g>
<g id="glyph-0-9">
<path d="M 7.992188 -1.6875 C 7.828125 -1.417969 7.628906 -1.164062 7.394531 -0.925781 C 7.160156 -0.691406 6.898438 -0.488281 6.601562 -0.316406 C 6.285156 -0.140625 5.96875 -0.00390625 5.644531 0.0898438 C 5.324219 0.179688 4.953125 0.226562 4.535156 0.226562 C 3.839844 0.226562 3.238281 0.125 2.734375 -0.0703125 C 2.226562 -0.269531 1.808594 -0.535156 1.480469 -0.867188 C 1.152344 -1.203125 0.90625 -1.59375 0.742188 -2.046875 C 0.582031 -2.503906 0.5 -2.996094 0.5 -3.527344 C 0.5 -4.007812 0.589844 -4.464844 0.765625 -4.90625 C 0.941406 -5.34375 1.191406 -5.734375 1.515625 -6.078125 C 1.835938 -6.414062 2.238281 -6.683594 2.726562 -6.890625 C 3.210938 -7.097656 3.757812 -7.199219 4.359375 -7.199219 C 5.015625 -7.199219 5.558594 -7.121094 5.980469 -6.960938 C 6.402344 -6.800781 6.753906 -6.582031 7.03125 -6.296875 C 7.300781 -6.03125 7.496094 -5.714844 7.617188 -5.347656 C 7.738281 -4.984375 7.800781 -4.601562 7.800781 -4.203125 L 7.800781 -3.746094 L 3.03125 -3.746094 C 3.03125 -2.78125 3.21875 -2.046875 3.589844 -1.542969 C 3.960938 -1.042969 4.550781 -0.789062 5.359375 -0.789062 C 5.800781 -0.789062 6.199219 -0.910156 6.550781 -1.152344 C 6.90625 -1.394531 7.207031 -1.703125 7.453125 -2.074219 L 7.992188 -1.6875 M 5.296875 -4.367188 C 5.296875 -4.648438 5.28125 -4.9375 5.253906 -5.234375 C 5.226562 -5.53125 5.175781 -5.773438 5.105469 -5.960938 C 5.027344 -6.179688 4.917969 -6.347656 4.777344 -6.460938 C 4.640625 -6.574219 4.464844 -6.628906 4.253906 -6.628906 C 3.890625 -6.628906 3.601562 -6.445312 3.386719 -6.078125 C 3.167969 -5.710938 3.050781 -5.132812 3.03125 -4.335938 Z "/>
</g>
<g id="glyph-0-10">
<path d="M 14.414062 0 L 10.226562 0 L 10.226562 -0.515625 C 10.328125 -0.527344 10.4375 -0.539062 10.546875 -0.550781 C 10.660156 -0.558594 10.753906 -0.582031 10.828125 -0.621094 C 10.929688 -0.667969 10.996094 -0.746094 11.023438 -0.855469 C 11.050781 -0.96875 11.066406 -1.109375 11.066406 -1.285156 L 11.066406 -4.578125 C 11.066406 -5.0625 10.980469 -5.425781 10.808594 -5.667969 C 10.636719 -5.910156 10.390625 -6.03125 10.070312 -6.03125 C 9.867188 -6.03125 9.683594 -6 9.527344 -5.933594 C 9.371094 -5.871094 9.222656 -5.792969 9.09375 -5.699219 C 8.957031 -5.601562 8.847656 -5.5 8.773438 -5.402344 C 8.699219 -5.304688 8.636719 -5.21875 8.582031 -5.148438 L 8.582031 -1.359375 C 8.582031 -1.191406 8.601562 -1.054688 8.644531 -0.949219 C 8.683594 -0.84375 8.753906 -0.757812 8.863281 -0.699219 C 8.9375 -0.65625 9.023438 -0.617188 9.117188 -0.585938 C 9.214844 -0.550781 9.316406 -0.527344 9.421875 -0.515625 L 9.421875 0 L 5.417969 0 L 5.417969 -0.515625 C 5.503906 -0.523438 5.613281 -0.535156 5.738281 -0.550781 C 5.863281 -0.5625 5.957031 -0.585938 6.019531 -0.621094 C 6.117188 -0.671875 6.179688 -0.746094 6.210938 -0.847656 C 6.242188 -0.945312 6.253906 -1.089844 6.253906 -1.285156 L 6.253906 -4.578125 C 6.253906 -5.0625 6.167969 -5.425781 5.996094 -5.667969 C 5.824219 -5.910156 5.578125 -6.03125 5.257812 -6.03125 C 5.054688 -6.03125 4.875 -6 4.71875 -5.933594 C 4.558594 -5.871094 4.414062 -5.792969 4.28125 -5.699219 C 4.144531 -5.601562 4.039062 -5.5 3.964844 -5.402344 C 3.890625 -5.304688 3.824219 -5.21875 3.773438 -5.148438 L 3.773438 -1.359375 C 3.773438 -1.195312 3.792969 -1.058594 3.835938 -0.953125 C 3.878906 -0.84375 3.953125 -0.757812 4.0625 -0.699219 C 4.136719 -0.65625 4.222656 -0.617188 4.320312 -0.585938 C 4.417969 -0.550781 4.519531 -0.527344 4.625 -0.515625 L 4.625 0 L 0.402344 0 L 0.402344 -0.515625 C 0.523438 -0.523438 0.644531 -0.535156 0.761719 -0.550781 C 0.878906 -0.5625 0.980469 -0.585938 1.066406 -0.621094 C 1.214844 -0.675781 1.320312 -0.757812 1.375 -0.863281 C 1.433594 -0.96875 1.460938 -1.109375 1.460938 -1.285156 L 1.460938 -5.386719 C 1.460938 -5.539062 1.421875 -5.6875 1.339844 -5.828125 C 1.261719 -5.972656 1.164062 -6.085938 1.050781 -6.164062 C 0.964844 -6.21875 0.859375 -6.265625 0.730469 -6.304688 C 0.601562 -6.34375 0.457031 -6.367188 0.304688 -6.382812 L 0.304688 -6.898438 L 3.667969 -7.082031 L 3.773438 -6.976562 L 3.773438 -5.980469 L 3.800781 -5.980469 C 3.933594 -6.097656 4.089844 -6.238281 4.269531 -6.398438 C 4.453125 -6.5625 4.621094 -6.691406 4.78125 -6.792969 C 4.957031 -6.90625 5.179688 -7 5.453125 -7.074219 C 5.722656 -7.148438 6.023438 -7.1875 6.347656 -7.1875 C 6.882812 -7.1875 7.332031 -7.070312 7.691406 -6.835938 C 8.050781 -6.605469 8.304688 -6.296875 8.457031 -5.910156 L 8.519531 -5.910156 C 8.65625 -6.039062 8.824219 -6.1875 9.019531 -6.359375 C 9.21875 -6.53125 9.398438 -6.667969 9.5625 -6.769531 C 9.746094 -6.886719 9.980469 -6.988281 10.265625 -7.066406 C 10.550781 -7.148438 10.855469 -7.1875 11.179688 -7.1875 C 11.886719 -7.1875 12.433594 -6.976562 12.816406 -6.558594 C 13.203125 -6.140625 13.394531 -5.546875 13.394531 -4.773438 L 13.394531 -1.347656 C 13.394531 -1.171875 13.417969 -1.035156 13.472656 -0.925781 C 13.523438 -0.820312 13.617188 -0.742188 13.753906 -0.683594 C 13.828125 -0.652344 13.921875 -0.617188 14.03125 -0.585938 C 14.140625 -0.550781 14.269531 -0.527344 14.414062 -0.515625 Z "/>
</g>
</g>
</defs>
<g fill="rgb(87.058824%, 85.882353%, 78.431373%)" fill-opacity="1">
<use xlink:href="#glyph-0-0" x="30" y="33.244141"/>
<use xlink:href="#glyph-0-1" x="42" y="33.244141"/>
<use xlink:href="#glyph-0-2" x="52" y="33.244141"/>
<use xlink:href="#glyph-0-3" x="62" y="33.244141"/>
<use xlink:href="#glyph-0-4" x="71" y="33.244141"/>
<use xlink:href="#glyph-0-5" x="75" y="33.244141"/>
<use xlink:href="#glyph-0-6" x="84" y="33.244141"/>
<use xlink:href="#glyph-0-7" x="92" y="33.244141"/>
<use xlink:href="#glyph-0-8" x="99" y="33.244141"/>
<use xlink:href="#glyph-0-9" x="105" y="33.244141"/>
<use xlink:href="#glyph-0-10" x="113" y="33.244141"/>
<use xlink:href="#glyph-0-7" x="128" y="33.244141"/>
</g>
</svg>
