<?xml version="1.0" encoding="UTF-8"?>
<svg xmlns="http://www.w3.org/2000/svg" xmlns:xlink="http://www.w3.org/1999/xlink" width="1920" height="1080" viewBox="0 0 1920 1080">
<defs>
<g>
<g id="glyph-0-0">
<path d="M 3.269531 -1.605469 C 3.4375 -1.492188 3.582031 -1.34375 3.695312 -1.152344 C 3.8125 -0.960938 3.867188 -0.722656 3.867188 -0.441406 C 3.867188 0.0546875 3.675781 0.460938 3.289062 0.777344 C 2.90625 1.09375 2.414062 1.25 1.8125 1.25 C 1.351562 1.25 0.964844 1.152344 0.65625 0.953125 C 0.34375 0.753906 0.191406 0.519531 0.191406 0.246094 C 0.191406 0.0859375 0.242188 -0.046875 0.34375 -0.160156 C 0.445312 -0.269531 0.585938 -0.324219 0.757812 -0.324219 C 0.933594 -0.324219 1.082031 -0.277344 1.195312 -0.179688 C 1.308594 -0.0859375 1.367188 0.0429688 1.367188 0.203125 C 1.367188 0.316406 1.347656 0.441406 1.308594 0.574219 C 1.269531 0.707031 1.238281 0.808594 1.214844 0.878906 C 1.269531 0.898438 1.332031 0.914062 1.402344 0.925781 C 1.476562 0.933594 1.542969 0.9375 1.605469 0.9375 C 1.734375 0.9375 1.863281 0.910156 1.988281 0.851562 C 2.109375 0.796875 2.21875 0.710938 2.304688 0.601562 C 2.40625 0.472656 2.484375 0.324219 2.535156 0.152344 C 2.589844 -0.0234375 2.613281 -0.21875 2.613281 -0.4375 C 2.613281 -0.757812 2.527344 -1.019531 2.359375 -1.222656 C 2.1875 -1.425781 1.964844 -1.527344 1.695312 -1.527344 C 1.484375 -1.527344 1.308594 -1.488281 1.164062 -1.402344 C 1.023438 -1.316406 0.894531 -1.207031 0.78125 -1.066406 L 0.519531 -1.15625 L 0.847656 -3.652344 L 3.710938 -3.652344 L 3.710938 -2.714844 L 1.09375 -2.714844 L 0.953125 -1.597656 C 1.074219 -1.675781 1.230469 -1.746094 1.425781 -1.816406 C 1.617188 -1.886719 1.84375 -1.921875 2.101562 -1.921875 C 2.304688 -1.921875 2.5 -1.902344 2.699219 -1.855469 C 2.894531 -1.8125 3.082031 -1.730469 3.269531 -1.605469 Z "/>
</g>
<g id="glyph-0-1">
<path d="M 4.015625 -3.160156 C 4.1875 -2.980469 4.3125 -2.773438 4.394531 -2.542969 C 4.476562 -2.308594 4.519531 -2.070312 4.519531 -1.820312 C 4.519531 -1.523438 4.46875 -1.257812 4.367188 -1.019531 C 4.261719 -0.78125 4.121094 -0.578125 3.941406 -0.414062 C 3.753906 -0.242188 3.539062 -0.109375 3.289062 -0.0195312 C 3.039062 0.0703125 2.753906 0.117188 2.429688 0.117188 C 2.089844 0.117188 1.789062 0.0625 1.527344 -0.0429688 C 1.265625 -0.148438 1.050781 -0.289062 0.875 -0.464844 C 0.703125 -0.636719 0.574219 -0.839844 0.484375 -1.070312 C 0.394531 -1.304688 0.347656 -1.554688 0.347656 -1.820312 C 0.347656 -2.085938 0.390625 -2.332031 0.476562 -2.554688 C 0.5625 -2.78125 0.691406 -2.988281 0.867188 -3.171875 C 1.039062 -3.347656 1.257812 -3.492188 1.523438 -3.597656 C 1.785156 -3.707031 2.089844 -3.761719 2.433594 -3.761719 C 2.789062 -3.761719 3.097656 -3.703125 3.363281 -3.59375 C 3.628906 -3.484375 3.84375 -3.339844 4.015625 -3.160156 M 3.058594 -0.632812 C 3.125 -0.785156 3.171875 -0.953125 3.199219 -1.140625 C 3.226562 -1.328125 3.242188 -1.554688 3.242188 -1.820312 C 3.242188 -2.058594 3.226562 -2.277344 3.203125 -2.46875 C 3.175781 -2.660156 3.132812 -2.832031 3.070312 -2.980469 C 3.007812 -3.132812 2.925781 -3.253906 2.820312 -3.335938 C 2.71875 -3.421875 2.589844 -3.460938 2.4375 -3.460938 C 2.285156 -3.460938 2.15625 -3.421875 2.050781 -3.339844 C 1.949219 -3.253906 1.863281 -3.136719 1.796875 -2.988281 C 1.738281 -2.847656 1.695312 -2.679688 1.667969 -2.480469 C 1.640625 -2.28125 1.628906 -2.058594 1.628906 -1.820312 C 1.628906 -1.570312 1.640625 -1.355469 1.664062 -1.179688 C 1.6875 -1.003906 1.730469 -0.835938 1.792969 -0.671875 C 1.851562 -0.523438 1.929688 -0.40625 2.039062 -0.316406 C 2.144531 -0.226562 2.273438 -0.179688 2.429688 -0.179688 C 2.574219 -0.179688 2.703125 -0.21875 2.808594 -0.300781 C 2.914062 -0.382812 2.996094 -0.492188 3.058594 -0.632812 Z "/>
</g>
</g>
</defs>
<g fill="rgb(100%, 100%, 100%)" fill-opacity="1">
<use xlink:href="#glyph-0-0" x="30" y="26.367188"/>
<use xlink:href="#glyph-0-1" x="34" y="26.367188"/>
</g>
</svg>
