<?xml version="1.0" encoding="UTF-8"?>
<svg xmlns="http://www.w3.org/2000/svg" xmlns:xlink="http://www.w3.org/1999/xlink" width="1920" height="1080" viewBox="0 0 1920 1080">
<defs>
<g>
<g id="glyph-0-0">
<path d="M 3.511719 -1.140625 C 3.648438 -1.050781 3.761719 -0.929688 3.851562 -0.777344 C 3.941406 -0.628906 3.988281 -0.441406 3.988281 -0.222656 C 3.988281 0.199219 3.785156 0.550781 3.378906 0.832031 C 2.976562 1.109375 2.453125 1.25 1.816406 1.25 C 1.359375 1.25 0.972656 1.152344 0.65625 0.957031 C 0.335938 0.761719 0.175781 0.523438 0.175781 0.238281 C 0.175781 0.078125 0.226562 -0.0585938 0.332031 -0.167969 C 0.433594 -0.28125 0.570312 -0.335938 0.742188 -0.335938 C 0.921875 -0.335938 1.066406 -0.289062 1.179688 -0.191406 C 1.296875 -0.09375 1.351562 0.03125 1.351562 0.191406 C 1.351562 0.304688 1.332031 0.429688 1.292969 0.566406 C 1.253906 0.703125 1.222656 0.800781 1.199219 0.867188 C 1.25 0.890625 1.3125 0.90625 1.394531 0.921875 C 1.472656 0.933594 1.566406 0.9375 1.671875 0.9375 C 1.800781 0.9375 1.929688 0.917969 2.054688 0.875 C 2.183594 0.832031 2.289062 0.761719 2.382812 0.664062 C 2.480469 0.5625 2.554688 0.445312 2.609375 0.308594 C 2.664062 0.171875 2.6875 -0.0117188 2.6875 -0.238281 C 2.6875 -0.367188 2.675781 -0.488281 2.652344 -0.605469 C 2.628906 -0.71875 2.585938 -0.820312 2.523438 -0.90625 C 2.460938 -0.992188 2.371094 -1.058594 2.261719 -1.105469 C 2.152344 -1.15625 2.015625 -1.179688 1.84375 -1.179688 L 1.414062 -1.179688 L 1.414062 -1.589844 L 1.71875 -1.589844 C 2.003906 -1.589844 2.210938 -1.675781 2.335938 -1.84375 C 2.464844 -2.011719 2.53125 -2.269531 2.53125 -2.613281 C 2.53125 -2.890625 2.46875 -3.101562 2.34375 -3.238281 C 2.222656 -3.378906 2.042969 -3.449219 1.8125 -3.449219 C 1.722656 -3.449219 1.644531 -3.441406 1.578125 -3.433594 C 1.515625 -3.421875 1.449219 -3.402344 1.378906 -3.378906 C 1.40625 -3.300781 1.433594 -3.191406 1.472656 -3.054688 C 1.507812 -2.917969 1.527344 -2.800781 1.527344 -2.703125 C 1.527344 -2.542969 1.46875 -2.414062 1.359375 -2.320312 C 1.25 -2.222656 1.105469 -2.175781 0.925781 -2.175781 C 0.757812 -2.175781 0.621094 -2.230469 0.519531 -2.34375 C 0.417969 -2.453125 0.371094 -2.589844 0.371094 -2.746094 C 0.371094 -3.027344 0.53125 -3.265625 0.855469 -3.464844 C 1.179688 -3.660156 1.589844 -3.761719 2.078125 -3.761719 C 2.417969 -3.761719 2.699219 -3.71875 2.921875 -3.640625 C 3.144531 -3.5625 3.320312 -3.464844 3.449219 -3.351562 C 3.574219 -3.238281 3.664062 -3.117188 3.710938 -2.984375 C 3.757812 -2.855469 3.785156 -2.738281 3.785156 -2.632812 C 3.785156 -2.535156 3.761719 -2.421875 3.722656 -2.296875 C 3.679688 -2.171875 3.617188 -2.0625 3.535156 -1.964844 C 3.4375 -1.851562 3.308594 -1.75 3.148438 -1.667969 C 2.984375 -1.585938 2.796875 -1.519531 2.582031 -1.476562 L 2.582031 -1.421875 C 2.730469 -1.410156 2.890625 -1.382812 3.058594 -1.339844 C 3.230469 -1.292969 3.382812 -1.226562 3.511719 -1.140625 Z "/>
</g>
<g id="glyph-0-1">
<path d="M 4.0625 0 L 1.941406 0 L 1.941406 -0.246094 C 2.054688 -0.253906 2.148438 -0.265625 2.222656 -0.277344 C 2.296875 -0.289062 2.332031 -0.3125 2.332031 -0.351562 C 2.332031 -0.371094 2.324219 -0.398438 2.304688 -0.4375 C 2.285156 -0.476562 2.261719 -0.519531 2.230469 -0.566406 C 2.1875 -0.636719 2.113281 -0.746094 2.007812 -0.898438 C 1.90625 -1.050781 1.804688 -1.191406 1.710938 -1.320312 C 1.582031 -1.167969 1.472656 -1.039062 1.382812 -0.929688 C 1.296875 -0.820312 1.203125 -0.703125 1.105469 -0.578125 C 1.070312 -0.539062 1.046875 -0.5 1.035156 -0.46875 C 1.019531 -0.433594 1.011719 -0.414062 1.011719 -0.40625 C 1.011719 -0.355469 1.050781 -0.316406 1.125 -0.289062 C 1.195312 -0.261719 1.285156 -0.246094 1.386719 -0.246094 L 1.386719 0 L 0.0117188 0 L 0.0117188 -0.246094 C 0.195312 -0.285156 0.339844 -0.347656 0.449219 -0.429688 C 0.558594 -0.515625 0.632812 -0.578125 0.671875 -0.625 C 0.835938 -0.800781 0.976562 -0.949219 1.089844 -1.066406 C 1.207031 -1.183594 1.359375 -1.347656 1.550781 -1.558594 C 1.421875 -1.734375 1.265625 -1.953125 1.085938 -2.210938 C 0.902344 -2.464844 0.75 -2.675781 0.628906 -2.839844 C 0.566406 -2.921875 0.492188 -2.984375 0.402344 -3.03125 C 0.3125 -3.074219 0.199219 -3.101562 0.0585938 -3.117188 L 0.0585938 -3.363281 L 2.128906 -3.363281 L 2.128906 -3.117188 C 2.054688 -3.117188 1.980469 -3.113281 1.910156 -3.101562 C 1.835938 -3.09375 1.800781 -3.078125 1.800781 -3.054688 C 1.800781 -3.035156 1.808594 -3.015625 1.816406 -2.988281 C 1.828125 -2.960938 1.84375 -2.933594 1.863281 -2.902344 C 1.90625 -2.832031 1.972656 -2.722656 2.066406 -2.582031 C 2.15625 -2.445312 2.257812 -2.296875 2.363281 -2.144531 C 2.464844 -2.265625 2.550781 -2.371094 2.617188 -2.449219 C 2.6875 -2.527344 2.777344 -2.640625 2.886719 -2.785156 C 2.925781 -2.839844 2.949219 -2.878906 2.960938 -2.90625 C 2.972656 -2.933594 2.976562 -2.949219 2.976562 -2.957031 C 2.976562 -2.996094 2.953125 -3.03125 2.902344 -3.058594 C 2.855469 -3.089844 2.757812 -3.109375 2.617188 -3.117188 L 2.617188 -3.363281 L 3.96875 -3.363281 L 3.96875 -3.117188 C 3.855469 -3.097656 3.75 -3.0625 3.644531 -3.003906 C 3.539062 -2.949219 3.433594 -2.859375 3.320312 -2.738281 C 3.144531 -2.554688 3.015625 -2.421875 2.933594 -2.339844 C 2.855469 -2.253906 2.722656 -2.113281 2.539062 -1.917969 C 2.640625 -1.769531 2.792969 -1.554688 2.988281 -1.273438 C 3.183594 -0.996094 3.351562 -0.757812 3.496094 -0.566406 C 3.558594 -0.480469 3.625 -0.410156 3.699219 -0.355469 C 3.777344 -0.300781 3.898438 -0.265625 4.0625 -0.246094 Z "/>
</g>
<g id="glyph-0-2">
<path d="M 4.179688 -2.578125 L 3.519531 -2.578125 L 2.441406 -4.316406 L 1.367188 -2.578125 L 0.707031 -2.578125 L 2.207031 -4.9375 L 2.683594 -4.9375 Z "/>
</g>
<g id="glyph-0-3">
<path d="M 4.046875 0 L 0.371094 0 L 0.371094 -0.613281 C 0.535156 -0.777344 0.710938 -0.925781 0.902344 -1.058594 C 1.09375 -1.195312 1.285156 -1.3125 1.484375 -1.417969 C 1.695312 -1.527344 1.871094 -1.625 2.011719 -1.714844 C 2.15625 -1.800781 2.269531 -1.890625 2.347656 -1.988281 C 2.429688 -2.074219 2.488281 -2.171875 2.523438 -2.273438 C 2.558594 -2.378906 2.578125 -2.496094 2.578125 -2.625 C 2.578125 -2.910156 2.507812 -3.121094 2.371094 -3.25 C 2.238281 -3.382812 2.054688 -3.449219 1.832031 -3.449219 C 1.761719 -3.449219 1.695312 -3.441406 1.632812 -3.433594 C 1.570312 -3.421875 1.503906 -3.402344 1.4375 -3.378906 C 1.472656 -3.273438 1.503906 -3.171875 1.535156 -3.0625 C 1.566406 -2.953125 1.582031 -2.832031 1.582031 -2.699219 C 1.582031 -2.539062 1.527344 -2.410156 1.410156 -2.316406 C 1.296875 -2.222656 1.148438 -2.171875 0.96875 -2.171875 C 0.800781 -2.171875 0.664062 -2.230469 0.566406 -2.339844 C 0.464844 -2.449219 0.414062 -2.585938 0.414062 -2.742188 C 0.414062 -3.019531 0.574219 -3.257812 0.894531 -3.457031 C 1.214844 -3.660156 1.605469 -3.761719 2.066406 -3.761719 C 2.601562 -3.761719 3.03125 -3.667969 3.363281 -3.484375 C 3.691406 -3.300781 3.855469 -3.007812 3.855469 -2.601562 C 3.855469 -2.390625 3.8125 -2.222656 3.722656 -2.09375 C 3.636719 -1.964844 3.507812 -1.851562 3.339844 -1.753906 C 3.1875 -1.664062 3.019531 -1.59375 2.835938 -1.535156 C 2.652344 -1.480469 2.453125 -1.425781 2.246094 -1.375 C 2.019531 -1.316406 1.824219 -1.257812 1.660156 -1.195312 C 1.492188 -1.128906 1.347656 -1.054688 1.21875 -0.964844 L 1.21875 -0.929688 L 4.046875 -0.929688 Z "/>
</g>
</g>
</defs>
<g fill="rgb(100%, 100%, 100%)" fill-opacity="1">
<use xlink:href="#glyph-0-0" x="30" y="26.367188"/>
<use xlink:href="#glyph-0-1" x="34" y="26.367188"/>
<use xlink:href="#glyph-0-2" x="38" y="26.367188"/>
<use xlink:href="#glyph-0-3" x="43" y="26.367188"/>
</g>
</svg>
