<?xml version="1.0" encoding="UTF-8"?>
<svg xmlns="http://www.w3.org/2000/svg" xmlns:xlink="http://www.w3.org/1999/xlink" width="1920" height="1080" viewBox="0 0 1920 1080">
<defs>
<g>
<g id="glyph-0-0">
<path d="M 9.902344 -3.210938 L 9.703125 0 L 0.488281 0 L 0.488281 -0.550781 C 0.652344 -0.5625 0.84375 -0.585938 1.066406 -0.617188 C 1.285156 -0.648438 1.433594 -0.675781 1.503906 -0.707031 C 1.671875 -0.769531 1.789062 -0.863281 1.855469 -0.980469 C 1.921875 -1.097656 1.953125 -1.25 1.953125 -1.433594 L 1.953125 -8.492188 C 1.953125 -8.660156 1.929688 -8.800781 1.875 -8.910156 C 1.824219 -9.023438 1.699219 -9.121094 1.503906 -9.210938 C 1.355469 -9.277344 1.179688 -9.328125 0.976562 -9.371094 C 0.773438 -9.410156 0.609375 -9.4375 0.488281 -9.457031 L 0.488281 -10.007812 L 5.980469 -10.007812 L 5.980469 -9.457031 C 5.832031 -9.445312 5.652344 -9.421875 5.449219 -9.398438 C 5.242188 -9.371094 5.066406 -9.335938 4.914062 -9.289062 C 4.730469 -9.226562 4.609375 -9.132812 4.550781 -9.003906 C 4.488281 -8.875 4.457031 -8.726562 4.457031 -8.5625 L 4.457031 -1.980469 C 4.457031 -1.671875 4.476562 -1.425781 4.519531 -1.25 C 4.5625 -1.070312 4.644531 -0.9375 4.769531 -0.851562 C 4.890625 -0.765625 5.058594 -0.707031 5.277344 -0.679688 C 5.496094 -0.65625 5.800781 -0.640625 6.183594 -0.640625 C 6.5625 -0.640625 6.925781 -0.664062 7.28125 -0.707031 C 7.636719 -0.753906 7.890625 -0.851562 8.046875 -1 C 8.285156 -1.242188 8.53125 -1.578125 8.785156 -2.011719 C 9.035156 -2.449219 9.238281 -2.847656 9.386719 -3.210938 Z "/>
</g>
<g id="glyph-0-1">
<path d="M 8.46875 -0.148438 C 8.265625 -0.0585938 8.019531 0.0234375 7.738281 0.0976562 C 7.457031 0.175781 7.160156 0.210938 6.84375 0.210938 C 6.265625 0.210938 5.84375 0.125 5.570312 -0.046875 C 5.296875 -0.21875 5.113281 -0.464844 5.015625 -0.78125 L 4.972656 -0.78125 C 4.8125 -0.621094 4.65625 -0.488281 4.507812 -0.375 C 4.359375 -0.261719 4.203125 -0.164062 4.03125 -0.0859375 C 3.8125 0.0195312 3.597656 0.0976562 3.394531 0.148438 C 3.1875 0.199219 2.902344 0.226562 2.535156 0.226562 C 1.988281 0.226562 1.523438 0.0625 1.136719 -0.257812 C 0.75 -0.582031 0.558594 -1.007812 0.558594 -1.539062 C 0.558594 -1.847656 0.597656 -2.105469 0.683594 -2.320312 C 0.769531 -2.535156 0.890625 -2.722656 1.042969 -2.890625 C 1.1875 -3.039062 1.347656 -3.164062 1.535156 -3.261719 C 1.722656 -3.363281 1.925781 -3.453125 2.148438 -3.539062 C 2.570312 -3.695312 3.078125 -3.855469 3.671875 -4.023438 C 4.265625 -4.191406 4.699219 -4.339844 4.972656 -4.472656 L 4.972656 -5.148438 C 4.972656 -5.265625 4.960938 -5.421875 4.945312 -5.613281 C 4.925781 -5.808594 4.886719 -5.96875 4.824219 -6.101562 C 4.757812 -6.25 4.65625 -6.378906 4.511719 -6.480469 C 4.371094 -6.585938 4.1875 -6.636719 3.957031 -6.636719 C 3.75 -6.636719 3.578125 -6.605469 3.4375 -6.546875 C 3.300781 -6.488281 3.1875 -6.429688 3.101562 -6.367188 C 3.117188 -6.273438 3.15625 -6.132812 3.222656 -5.9375 C 3.289062 -5.746094 3.320312 -5.558594 3.320312 -5.382812 C 3.320312 -5.300781 3.300781 -5.203125 3.257812 -5.082031 C 3.214844 -4.960938 3.15625 -4.867188 3.074219 -4.796875 C 2.964844 -4.703125 2.84375 -4.628906 2.710938 -4.578125 C 2.574219 -4.527344 2.371094 -4.5 2.089844 -4.5 C 1.695312 -4.5 1.394531 -4.59375 1.191406 -4.785156 C 0.988281 -4.976562 0.886719 -5.222656 0.886719 -5.53125 C 0.886719 -5.792969 0.992188 -6.027344 1.203125 -6.238281 C 1.410156 -6.449219 1.667969 -6.621094 1.96875 -6.757812 C 2.265625 -6.898438 2.605469 -7.007812 2.992188 -7.085938 C 3.375 -7.160156 3.734375 -7.199219 4.0625 -7.199219 C 4.519531 -7.199219 4.9375 -7.171875 5.316406 -7.121094 C 5.699219 -7.066406 6.042969 -6.953125 6.347656 -6.785156 C 6.640625 -6.621094 6.871094 -6.382812 7.042969 -6.070312 C 7.214844 -5.757812 7.300781 -5.347656 7.300781 -4.84375 C 7.300781 -4.3125 7.289062 -3.683594 7.269531 -2.957031 C 7.246094 -2.226562 7.234375 -1.746094 7.234375 -1.515625 C 7.234375 -1.304688 7.269531 -1.136719 7.332031 -1.015625 C 7.394531 -0.894531 7.492188 -0.800781 7.625 -0.742188 C 7.703125 -0.703125 7.828125 -0.679688 8 -0.671875 C 8.171875 -0.667969 8.328125 -0.664062 8.46875 -0.664062 L 8.46875 -0.148438 M 4.972656 -3.824219 C 4.707031 -3.734375 4.445312 -3.628906 4.1875 -3.515625 C 3.925781 -3.398438 3.714844 -3.277344 3.550781 -3.152344 C 3.375 -3.019531 3.238281 -2.851562 3.140625 -2.644531 C 3.039062 -2.441406 2.992188 -2.199219 2.992188 -1.921875 C 2.992188 -1.554688 3.074219 -1.285156 3.242188 -1.121094 C 3.410156 -0.957031 3.617188 -0.875 3.859375 -0.875 C 4.121094 -0.875 4.335938 -0.925781 4.5 -1.035156 C 4.667969 -1.140625 4.816406 -1.269531 4.945312 -1.425781 Z "/>
</g>
<g id="glyph-0-2">
<path d="M 3.675781 0.238281 C 3.21875 0.238281 2.773438 0.171875 2.339844 0.0390625 C 1.902344 -0.09375 1.566406 -0.238281 1.324219 -0.386719 L 1.113281 0.0898438 L 0.5625 0.0898438 L 0.472656 -2.539062 L 0.988281 -2.539062 C 1.058594 -2.328125 1.175781 -2.089844 1.339844 -1.824219 C 1.503906 -1.558594 1.691406 -1.320312 1.902344 -1.105469 C 2.125 -0.894531 2.378906 -0.71875 2.664062 -0.570312 C 2.945312 -0.425781 3.25 -0.351562 3.574219 -0.351562 C 4.003906 -0.351562 4.320312 -0.4375 4.53125 -0.601562 C 4.742188 -0.769531 4.84375 -1.027344 4.84375 -1.375 C 4.84375 -1.5625 4.796875 -1.71875 4.703125 -1.839844 C 4.609375 -1.964844 4.480469 -2.070312 4.316406 -2.15625 C 4.132812 -2.253906 3.933594 -2.332031 3.714844 -2.398438 C 3.496094 -2.464844 3.226562 -2.542969 2.90625 -2.636719 C 2.585938 -2.730469 2.3125 -2.828125 2.085938 -2.921875 C 1.855469 -3.019531 1.621094 -3.171875 1.375 -3.378906 C 1.164062 -3.5625 0.996094 -3.78125 0.867188 -4.042969 C 0.742188 -4.300781 0.675781 -4.609375 0.675781 -4.964844 C 0.675781 -5.628906 0.957031 -6.164062 1.511719 -6.574219 C 2.070312 -6.980469 2.800781 -7.1875 3.703125 -7.1875 C 4.128906 -7.1875 4.523438 -7.144531 4.882812 -7.054688 C 5.242188 -6.96875 5.546875 -6.875 5.789062 -6.769531 L 5.9375 -7.1875 L 6.472656 -7.1875 L 6.585938 -4.78125 L 6.09375 -4.78125 C 5.929688 -5.269531 5.648438 -5.691406 5.246094 -6.046875 C 4.847656 -6.402344 4.417969 -6.582031 3.957031 -6.582031 C 3.59375 -6.582031 3.308594 -6.503906 3.101562 -6.355469 C 2.894531 -6.203125 2.792969 -5.996094 2.792969 -5.726562 C 2.792969 -5.371094 2.945312 -5.109375 3.246094 -4.949219 C 3.550781 -4.792969 3.972656 -4.640625 4.519531 -4.5 C 5.359375 -4.285156 5.972656 -3.988281 6.363281 -3.613281 C 6.753906 -3.242188 6.945312 -2.765625 6.945312 -2.1875 C 6.945312 -1.414062 6.644531 -0.816406 6.039062 -0.394531 C 5.4375 0.0273438 4.648438 0.238281 3.675781 0.238281 Z "/>
</g>
<g id="glyph-0-3">
<path d="M 5.65625 -0.324219 C 5.355469 -0.191406 5.035156 -0.0742188 4.691406 0.03125 C 4.347656 0.136719 3.929688 0.191406 3.433594 0.191406 C 2.703125 0.191406 2.15625 0.0117188 1.800781 -0.34375 C 1.445312 -0.703125 1.269531 -1.210938 1.269531 -1.875 L 1.269531 -6.199219 L 0 -6.199219 L 0 -6.96875 L 1.296875 -6.96875 L 1.296875 -9.105469 L 3.582031 -9.105469 L 3.582031 -6.96875 L 5.566406 -6.96875 L 5.566406 -6.199219 L 3.597656 -6.199219 L 3.597656 -2.339844 C 3.597656 -1.789062 3.671875 -1.402344 3.828125 -1.171875 C 3.980469 -0.941406 4.253906 -0.824219 4.652344 -0.824219 C 4.777344 -0.824219 4.957031 -0.835938 5.183594 -0.851562 C 5.410156 -0.871094 5.566406 -0.894531 5.65625 -0.917969 Z "/>
</g>
<g id="glyph-0-4">
</g>
<g id="glyph-0-5">
<path d="M 11.984375 -9.457031 C 11.851562 -9.445312 11.664062 -9.417969 11.417969 -9.378906 C 11.175781 -9.34375 10.953125 -9.25 10.753906 -9.105469 C 10.582031 -8.976562 10.457031 -8.761719 10.386719 -8.453125 C 10.3125 -8.144531 10.277344 -7.691406 10.277344 -7.09375 L 10.277344 0.0546875 L 9.019531 0.0546875 L 2.785156 -7.679688 L 2.785156 -2.984375 C 2.785156 -2.398438 2.824219 -1.957031 2.902344 -1.652344 C 2.980469 -1.351562 3.105469 -1.128906 3.28125 -0.988281 C 3.40625 -0.882812 3.609375 -0.792969 3.886719 -0.710938 C 4.164062 -0.632812 4.382812 -0.578125 4.550781 -0.550781 L 4.550781 0 L 0.246094 0 L 0.246094 -0.550781 C 0.429688 -0.5625 0.640625 -0.597656 0.878906 -0.652344 C 1.117188 -0.707031 1.3125 -0.789062 1.472656 -0.902344 C 1.65625 -1.039062 1.78125 -1.246094 1.851562 -1.519531 C 1.917969 -1.796875 1.953125 -2.257812 1.953125 -2.90625 L 1.953125 -7.644531 C 1.953125 -7.878906 1.917969 -8.101562 1.84375 -8.3125 C 1.769531 -8.519531 1.65625 -8.699219 1.503906 -8.851562 C 1.335938 -9.011719 1.148438 -9.136719 0.933594 -9.226562 C 0.71875 -9.320312 0.476562 -9.390625 0.203125 -9.445312 L 0.203125 -10.007812 L 3.972656 -10.007812 L 9.445312 -3.238281 L 9.445312 -7.027344 C 9.445312 -7.628906 9.402344 -8.074219 9.324219 -8.367188 C 9.242188 -8.664062 9.117188 -8.878906 8.941406 -9.019531 C 8.804688 -9.128906 8.605469 -9.222656 8.335938 -9.300781 C 8.066406 -9.375 7.851562 -9.429688 7.6875 -9.457031 L 7.6875 -10.007812 L 11.984375 -10.007812 Z "/>
</g>
<g id="glyph-0-6">
<path d="M 7.609375 -6.164062 C 7.957031 -5.839844 8.222656 -5.453125 8.40625 -5 C 8.589844 -4.550781 8.683594 -4.058594 8.683594 -3.535156 C 8.683594 -3.011719 8.589844 -2.519531 8.410156 -2.054688 C 8.230469 -1.59375 7.964844 -1.195312 7.617188 -0.867188 C 7.246094 -0.515625 6.800781 -0.246094 6.289062 -0.0546875 C 5.773438 0.132812 5.183594 0.226562 4.519531 0.226562 C 3.945312 0.226562 3.417969 0.144531 2.9375 -0.0195312 C 2.457031 -0.1875 2.027344 -0.433594 1.65625 -0.761719 C 1.300781 -1.078125 1.019531 -1.464844 0.8125 -1.929688 C 0.605469 -2.390625 0.5 -2.910156 0.5 -3.484375 C 0.5 -4.046875 0.589844 -4.550781 0.773438 -4.988281 C 0.953125 -5.429688 1.226562 -5.820312 1.585938 -6.164062 C 1.933594 -6.492188 2.363281 -6.75 2.875 -6.929688 C 3.382812 -7.109375 3.953125 -7.199219 4.585938 -7.199219 C 5.242188 -7.199219 5.820312 -7.109375 6.324219 -6.929688 C 6.824219 -6.75 7.253906 -6.492188 7.609375 -6.164062 M 5.804688 -1.277344 C 5.90625 -1.539062 5.984375 -1.859375 6.035156 -2.234375 C 6.082031 -2.613281 6.109375 -3.050781 6.109375 -3.546875 C 6.109375 -3.875 6.085938 -4.253906 6.039062 -4.675781 C 5.988281 -5.097656 5.917969 -5.433594 5.824219 -5.675781 C 5.710938 -5.972656 5.554688 -6.207031 5.355469 -6.375 C 5.15625 -6.546875 4.902344 -6.628906 4.597656 -6.628906 C 4.265625 -6.628906 3.996094 -6.539062 3.796875 -6.355469 C 3.597656 -6.171875 3.445312 -5.933594 3.335938 -5.640625 C 3.238281 -5.375 3.167969 -5.058594 3.132812 -4.699219 C 3.09375 -4.339844 3.074219 -3.964844 3.074219 -3.574219 C 3.074219 -3.0625 3.089844 -2.640625 3.125 -2.300781 C 3.15625 -1.964844 3.238281 -1.628906 3.363281 -1.289062 C 3.472656 -1 3.628906 -0.769531 3.828125 -0.597656 C 4.03125 -0.429688 4.289062 -0.34375 4.597656 -0.34375 C 4.878906 -0.34375 5.121094 -0.425781 5.324219 -0.582031 C 5.527344 -0.738281 5.6875 -0.972656 5.804688 -1.277344 Z "/>
</g>
<g id="glyph-0-7">
<path d="M 9.519531 -0.148438 L 6.042969 0.0546875 L 5.9375 -0.0429688 L 5.9375 -0.691406 L 5.890625 -0.707031 C 5.660156 -0.457031 5.347656 -0.238281 4.957031 -0.0546875 C 4.5625 0.132812 4.167969 0.226562 3.769531 0.226562 C 2.820312 0.226562 2.039062 -0.125 1.421875 -0.832031 C 0.808594 -1.539062 0.5 -2.449219 0.5 -3.570312 C 0.5 -4.5625 0.84375 -5.410156 1.53125 -6.121094 C 2.21875 -6.832031 3.054688 -7.1875 4.03125 -7.1875 C 4.414062 -7.1875 4.777344 -7.144531 5.113281 -7.054688 C 5.453125 -6.96875 5.722656 -6.867188 5.925781 -6.75 L 5.925781 -9.054688 C 5.925781 -9.230469 5.890625 -9.394531 5.820312 -9.546875 C 5.746094 -9.699219 5.652344 -9.816406 5.535156 -9.902344 C 5.390625 -10.003906 5.207031 -10.078125 4.988281 -10.125 C 4.769531 -10.167969 4.550781 -10.199219 4.332031 -10.21875 L 4.332031 -10.734375 L 8.144531 -10.917969 L 8.25 -10.804688 L 8.25 -1.558594 C 8.25 -1.378906 8.28125 -1.230469 8.339844 -1.105469 C 8.398438 -0.984375 8.492188 -0.886719 8.625 -0.816406 C 8.722656 -0.765625 8.867188 -0.730469 9.054688 -0.707031 C 9.242188 -0.683594 9.398438 -0.667969 9.519531 -0.664062 L 9.519531 -0.148438 M 5.925781 -1.402344 L 5.925781 -5.386719 C 5.890625 -5.496094 5.847656 -5.617188 5.785156 -5.746094 C 5.726562 -5.878906 5.648438 -6.003906 5.542969 -6.121094 C 5.449219 -6.21875 5.324219 -6.308594 5.167969 -6.382812 C 5.011719 -6.457031 4.832031 -6.496094 4.636719 -6.496094 C 4.167969 -6.496094 3.78125 -6.230469 3.484375 -5.699219 C 3.183594 -5.167969 3.03125 -4.417969 3.03125 -3.449219 C 3.03125 -3.066406 3.058594 -2.726562 3.113281 -2.421875 C 3.167969 -2.121094 3.261719 -1.84375 3.398438 -1.59375 C 3.535156 -1.34375 3.710938 -1.148438 3.921875 -1.007812 C 4.136719 -0.867188 4.394531 -0.796875 4.691406 -0.796875 C 4.980469 -0.796875 5.214844 -0.851562 5.402344 -0.960938 C 5.589844 -1.074219 5.765625 -1.21875 5.925781 -1.402344 Z "/>
</g>
<g id="glyph-0-8">
<path d="M 7.992188 -1.6875 C 7.828125 -1.417969 7.628906 -1.164062 7.394531 -0.925781 C 7.160156 -0.691406 6.898438 -0.488281 6.601562 -0.316406 C 6.285156 -0.140625 5.96875 -0.00390625 5.644531 0.0898438 C 5.324219 0.179688 4.953125 0.226562 4.535156 0.226562 C 3.839844 0.226562 3.238281 0.125 2.734375 -0.0703125 C 2.226562 -0.269531 1.808594 -0.535156 1.480469 -0.867188 C 1.152344 -1.203125 0.90625 -1.59375 0.742188 -2.046875 C 0.582031 -2.503906 0.5 -2.996094 0.5 -3.527344 C 0.5 -4.007812 0.589844 -4.464844 0.765625 -4.90625 C 0.941406 -5.34375 1.191406 -5.734375 1.515625 -6.078125 C 1.835938 -6.414062 2.238281 -6.683594 2.726562 -6.890625 C 3.210938 -7.097656 3.757812 -7.199219 4.359375 -7.199219 C 5.015625 -7.199219 5.558594 -7.121094 5.980469 -6.960938 C 6.402344 -6.800781 6.753906 -6.582031 7.03125 -6.296875 C 7.300781 -6.03125 7.496094 -5.714844 7.617188 -5.347656 C 7.738281 -4.984375 7.800781 -4.601562 7.800781 -4.203125 L 7.800781 -3.746094 L 3.03125 -3.746094 C 3.03125 -2.78125 3.21875 -2.046875 3.589844 -1.542969 C 3.960938 -1.042969 4.550781 -0.789062 5.359375 -0.789062 C 5.800781 -0.789062 6.199219 -0.910156 6.550781 -1.152344 C 6.90625 -1.394531 7.207031 -1.703125 7.453125 -2.074219 L 7.992188 -1.6875 M 5.296875 -4.367188 C 5.296875 -4.648438 5.28125 -4.9375 5.253906 -5.234375 C 5.226562 -5.53125 5.175781 -5.773438 5.105469 -5.960938 C 5.027344 -6.179688 4.917969 -6.347656 4.777344 -6.460938 C 4.640625 -6.574219 4.464844 -6.628906 4.253906 -6.628906 C 3.890625 -6.628906 3.601562 -6.445312 3.386719 -6.078125 C 3.167969 -5.710938 3.050781 -5.132812 3.03125 -4.335938 Z "/>
</g>
<g id="glyph-0-9">
<path d="M 9.867188 -7.503906 C 9.867188 -6.941406 9.75 -6.453125 9.519531 -6.046875 C 9.285156 -5.640625 8.964844 -5.3125 8.554688 -5.058594 C 8.132812 -4.792969 7.648438 -4.601562 7.105469 -4.484375 C 6.5625 -4.367188 5.953125 -4.308594 5.277344 -4.308594 L 4.457031 -4.308594 L 4.457031 -1.496094 C 4.457031 -1.324219 4.488281 -1.179688 4.550781 -1.054688 C 4.617188 -0.929688 4.738281 -0.828125 4.914062 -0.753906 C 5.011719 -0.71875 5.164062 -0.675781 5.375 -0.632812 C 5.585938 -0.59375 5.765625 -0.5625 5.910156 -0.550781 L 5.910156 0 L 0.488281 0 L 0.488281 -0.550781 C 0.621094 -0.5625 0.804688 -0.585938 1.03125 -0.609375 C 1.253906 -0.636719 1.414062 -0.667969 1.503906 -0.707031 C 1.6875 -0.78125 1.808594 -0.871094 1.867188 -0.980469 C 1.925781 -1.089844 1.953125 -1.238281 1.953125 -1.433594 L 1.953125 -8.492188 C 1.953125 -8.65625 1.925781 -8.796875 1.867188 -8.917969 C 1.8125 -9.039062 1.691406 -9.136719 1.503906 -9.21875 C 1.371094 -9.273438 1.195312 -9.324219 0.976562 -9.371094 C 0.757812 -9.414062 0.59375 -9.445312 0.488281 -9.457031 L 0.488281 -10.007812 L 6.007812 -10.007812 C 7.300781 -10.007812 8.269531 -9.800781 8.90625 -9.390625 C 9.546875 -8.980469 9.867188 -8.351562 9.867188 -7.503906 M 7.117188 -7.144531 C 7.117188 -7.898438 6.964844 -8.453125 6.660156 -8.820312 C 6.359375 -9.183594 5.820312 -9.367188 5.042969 -9.367188 L 4.457031 -9.367188 L 4.457031 -4.972656 L 4.753906 -4.972656 C 5.523438 -4.972656 6.109375 -5.148438 6.511719 -5.503906 C 6.914062 -5.859375 7.117188 -6.40625 7.117188 -7.144531 Z "/>
</g>
<g id="glyph-0-10">
<path d="M 4.867188 0 L 0.410156 0 L 0.410156 -0.515625 C 0.53125 -0.523438 0.652344 -0.535156 0.769531 -0.550781 C 0.886719 -0.5625 0.988281 -0.585938 1.070312 -0.621094 C 1.222656 -0.675781 1.328125 -0.757812 1.390625 -0.863281 C 1.449219 -0.96875 1.480469 -1.109375 1.480469 -1.285156 L 1.480469 -5.386719 C 1.480469 -5.554688 1.445312 -5.699219 1.367188 -5.820312 C 1.292969 -5.945312 1.199219 -6.046875 1.085938 -6.121094 C 1 -6.179688 0.875 -6.230469 0.703125 -6.285156 C 0.53125 -6.335938 0.375 -6.367188 0.234375 -6.382812 L 0.234375 -6.898438 L 3.6875 -7.082031 L 3.792969 -6.976562 L 3.792969 -1.375 C 3.792969 -1.210938 3.828125 -1.070312 3.898438 -0.957031 C 3.96875 -0.839844 4.070312 -0.753906 4.203125 -0.699219 C 4.296875 -0.65625 4.402344 -0.617188 4.515625 -0.585938 C 4.625 -0.550781 4.746094 -0.527344 4.867188 -0.515625 L 4.867188 0 M 3.835938 -9.621094 C 3.835938 -9.261719 3.699219 -8.957031 3.425781 -8.707031 C 3.148438 -8.453125 2.824219 -8.328125 2.449219 -8.328125 C 2.066406 -8.328125 1.738281 -8.453125 1.464844 -8.707031 C 1.1875 -8.957031 1.050781 -9.261719 1.050781 -9.621094 C 1.050781 -9.976562 1.1875 -10.28125 1.464844 -10.535156 C 1.738281 -10.789062 2.066406 -10.917969 2.449219 -10.917969 C 2.828125 -10.917969 3.15625 -10.789062 3.425781 -10.535156 C 3.699219 -10.28125 3.835938 -9.976562 3.835938 -9.621094 Z "/>
</g>
<g id="glyph-0-11">
<path d="M 9.71875 0 L 5.480469 0 L 5.480469 -0.515625 C 5.570312 -0.523438 5.675781 -0.535156 5.804688 -0.550781 C 5.929688 -0.5625 6.027344 -0.585938 6.09375 -0.621094 C 6.191406 -0.671875 6.261719 -0.746094 6.304688 -0.847656 C 6.347656 -0.945312 6.367188 -1.089844 6.367188 -1.285156 L 6.367188 -4.585938 C 6.367188 -5.0625 6.28125 -5.425781 6.101562 -5.667969 C 5.925781 -5.910156 5.667969 -6.03125 5.320312 -6.03125 C 5.132812 -6.03125 4.957031 -6 4.796875 -5.945312 C 4.632812 -5.890625 4.472656 -5.808594 4.316406 -5.699219 C 4.179688 -5.605469 4.070312 -5.507812 3.988281 -5.410156 C 3.90625 -5.3125 3.835938 -5.222656 3.78125 -5.148438 L 3.78125 -1.359375 C 3.78125 -1.195312 3.804688 -1.058594 3.851562 -0.949219 C 3.898438 -0.839844 3.976562 -0.753906 4.082031 -0.699219 C 4.160156 -0.65625 4.253906 -0.617188 4.367188 -0.585938 C 4.476562 -0.550781 4.589844 -0.527344 4.695312 -0.515625 L 4.695312 0 L 0.410156 0 L 0.410156 -0.515625 C 0.527344 -0.523438 0.644531 -0.539062 0.765625 -0.554688 C 0.886719 -0.570312 0.988281 -0.59375 1.070312 -0.621094 C 1.222656 -0.671875 1.324219 -0.753906 1.382812 -0.859375 C 1.4375 -0.96875 1.46875 -1.109375 1.46875 -1.285156 L 1.46875 -5.386719 C 1.46875 -5.535156 1.429688 -5.675781 1.355469 -5.820312 C 1.277344 -5.960938 1.179688 -6.074219 1.058594 -6.164062 C 0.972656 -6.21875 0.867188 -6.265625 0.738281 -6.304688 C 0.609375 -6.34375 0.464844 -6.367188 0.308594 -6.382812 L 0.308594 -6.898438 L 3.675781 -7.082031 L 3.78125 -6.976562 L 3.78125 -5.953125 L 3.808594 -5.953125 C 3.941406 -6.070312 4.101562 -6.210938 4.289062 -6.375 C 4.476562 -6.539062 4.648438 -6.675781 4.808594 -6.777344 C 4.984375 -6.890625 5.210938 -6.988281 5.492188 -7.066406 C 5.777344 -7.148438 6.078125 -7.1875 6.398438 -7.1875 C 7.164062 -7.1875 7.738281 -6.96875 8.121094 -6.535156 C 8.503906 -6.097656 8.695312 -5.523438 8.695312 -4.804688 L 8.695312 -1.347656 C 8.695312 -1.171875 8.722656 -1.035156 8.773438 -0.929688 C 8.824219 -0.828125 8.921875 -0.746094 9.0625 -0.683594 C 9.136719 -0.652344 9.230469 -0.617188 9.339844 -0.585938 C 9.453125 -0.550781 9.578125 -0.527344 9.71875 -0.515625 Z "/>
</g>
<g id="glyph-0-12">
<path d="M 9.480469 -7.335938 L 8.929688 -7.335938 C 8.792969 -7.722656 8.550781 -8.136719 8.207031 -8.574219 C 7.863281 -9.011719 7.535156 -9.253906 7.226562 -9.296875 C 7.082031 -9.316406 6.894531 -9.332031 6.660156 -9.34375 C 6.425781 -9.359375 6.210938 -9.367188 6.011719 -9.367188 L 4.457031 -9.367188 L 4.457031 -5.445312 L 5.453125 -5.445312 C 5.734375 -5.445312 5.976562 -5.476562 6.183594 -5.539062 C 6.390625 -5.601562 6.574219 -5.71875 6.734375 -5.882812 C 6.851562 -6 6.96875 -6.195312 7.078125 -6.472656 C 7.1875 -6.746094 7.253906 -6.980469 7.277344 -7.179688 L 7.8125 -7.179688 L 7.8125 -2.96875 L 7.277344 -2.96875 C 7.257812 -3.179688 7.1875 -3.4375 7.058594 -3.742188 C 6.933594 -4.042969 6.824219 -4.246094 6.734375 -4.34375 C 6.597656 -4.496094 6.425781 -4.605469 6.214844 -4.679688 C 6 -4.753906 5.746094 -4.789062 5.453125 -4.789062 L 4.457031 -4.789062 L 4.457031 -1.472656 C 4.457031 -1.304688 4.488281 -1.160156 4.550781 -1.039062 C 4.617188 -0.921875 4.738281 -0.824219 4.914062 -0.746094 C 5.019531 -0.707031 5.160156 -0.667969 5.34375 -0.632812 C 5.523438 -0.597656 5.703125 -0.570312 5.882812 -0.550781 L 5.882812 0 L 0.488281 0 L 0.488281 -0.550781 C 0.621094 -0.5625 0.804688 -0.585938 1.03125 -0.609375 C 1.253906 -0.636719 1.414062 -0.667969 1.503906 -0.707031 C 1.671875 -0.769531 1.789062 -0.863281 1.855469 -0.980469 C 1.921875 -1.097656 1.953125 -1.25 1.953125 -1.433594 L 1.953125 -8.492188 C 1.953125 -8.652344 1.925781 -8.792969 1.867188 -8.910156 C 1.808594 -9.03125 1.6875 -9.132812 1.503906 -9.210938 C 1.371094 -9.265625 1.195312 -9.320312 0.980469 -9.367188 C 0.765625 -9.414062 0.597656 -9.445312 0.488281 -9.457031 L 0.488281 -10.007812 L 9.480469 -10.007812 Z "/>
</g>
<g id="glyph-0-13">
<path d="M 7.433594 -5.707031 C 7.433594 -5.347656 7.324219 -5.035156 7.101562 -4.765625 C 6.882812 -4.492188 6.589844 -4.359375 6.226562 -4.359375 C 5.882812 -4.359375 5.59375 -4.445312 5.355469 -4.617188 C 5.117188 -4.792969 5 -5.046875 5 -5.382812 C 5 -5.546875 5.011719 -5.675781 5.035156 -5.765625 C 5.058594 -5.859375 5.082031 -5.945312 5.097656 -6.023438 C 4.882812 -6.015625 4.65625 -5.9375 4.414062 -5.800781 C 4.175781 -5.660156 3.964844 -5.472656 3.78125 -5.238281 L 3.78125 -1.367188 C 3.78125 -1.203125 3.804688 -1.066406 3.859375 -0.960938 C 3.910156 -0.851562 3.996094 -0.765625 4.117188 -0.707031 C 4.222656 -0.652344 4.390625 -0.609375 4.625 -0.574219 C 4.855469 -0.539062 5.023438 -0.519531 5.128906 -0.515625 L 5.128906 0 L 0.410156 0 L 0.410156 -0.515625 C 0.527344 -0.523438 0.644531 -0.539062 0.765625 -0.554688 C 0.886719 -0.570312 0.988281 -0.59375 1.070312 -0.621094 C 1.222656 -0.671875 1.324219 -0.753906 1.382812 -0.859375 C 1.4375 -0.96875 1.46875 -1.109375 1.46875 -1.285156 L 1.46875 -5.386719 C 1.46875 -5.558594 1.425781 -5.710938 1.347656 -5.84375 C 1.265625 -5.976562 1.171875 -6.085938 1.058594 -6.164062 C 0.972656 -6.21875 0.867188 -6.265625 0.738281 -6.304688 C 0.609375 -6.34375 0.464844 -6.367188 0.308594 -6.382812 L 0.308594 -6.898438 L 3.675781 -7.082031 L 3.78125 -6.976562 L 3.78125 -5.953125 L 3.808594 -5.953125 C 4.132812 -6.328125 4.476562 -6.625 4.839844 -6.835938 C 5.207031 -7.050781 5.585938 -7.160156 5.980469 -7.160156 C 6.417969 -7.160156 6.769531 -7.023438 7.035156 -6.753906 C 7.300781 -6.484375 7.433594 -6.132812 7.433594 -5.707031 Z "/>
</g>
</g>
</defs>
<g fill="rgb(87.058824%, 85.882353%, 78.431373%)" fill-opacity="1">
<use xlink:href="#glyph-0-0" x="30" y="33.244141"/>
<use xlink:href="#glyph-0-1" x="40" y="33.244141"/>
<use xlink:href="#glyph-0-2" x="49" y="33.244141"/>
<use xlink:href="#glyph-0-3" x="56" y="33.244141"/>
<use xlink:href="#glyph-0-4" x="62" y="33.244141"/>
<use xlink:href="#glyph-0-5" x="66" y="33.244141"/>
<use xlink:href="#glyph-0-6" x="78" y="33.244141"/>
<use xlink:href="#glyph-0-7" x="87" y="33.244141"/>
<use xlink:href="#glyph-0-8" x="97" y="33.244141"/>
<use xlink:href="#glyph-0-4" x="105" y="33.244141"/>
<use xlink:href="#glyph-0-9" x="109" y="33.244141"/>
<use xlink:href="#glyph-0-6" x="119" y="33.244141"/>
<use xlink:href="#glyph-0-10" x="128" y="33.244141"/>
<use xlink:href="#glyph-0-11" x="133" y="33.244141"/>
<use xlink:href="#glyph-0-3" x="143" y="33.244141"/>
<use xlink:href="#glyph-0-2" x="149" y="33.244141"/>
<use xlink:href="#glyph-0-4" x="156" y="33.244141"/>
<use xlink:href="#glyph-0-3" x="160" y="33.244141"/>
<use xlink:href="#glyph-0-6" x="166" y="33.244141"/>
<use xlink:href="#glyph-0-4" x="175" y="33.244141"/>
<use xlink:href="#glyph-0-12" x="179" y="33.244141"/>
<use xlink:href="#glyph-0-10" x="189" y="33.244141"/>
<use xlink:href="#glyph-0-13" x="194" y="33.244141"/>
<use xlink:href="#glyph-0-2" x="202" y="33.244141"/>
<use xlink:href="#glyph-0-3" x="209" y="33.244141"/>
</g>
</svg>
