<?xml version="1.0" encoding="UTF-8"?>
<svg xmlns="http://www.w3.org/2000/svg" xmlns:xlink="http://www.w3.org/1999/xlink" width="1920" height="1080" viewBox="0 0 1920 1080">
<defs>
<g>
<g id="glyph-0-0">
<path d="M 3.511719 -1.140625 C 3.648438 -1.050781 3.761719 -0.929688 3.851562 -0.777344 C 3.941406 -0.628906 3.988281 -0.441406 3.988281 -0.222656 C 3.988281 0.199219 3.785156 0.550781 3.378906 0.832031 C 2.976562 1.109375 2.453125 1.25 1.816406 1.25 C 1.359375 1.25 0.972656 1.152344 0.65625 0.957031 C 0.335938 0.761719 0.175781 0.523438 0.175781 0.238281 C 0.175781 0.078125 0.226562 -0.0585938 0.332031 -0.167969 C 0.433594 -0.28125 0.570312 -0.335938 0.742188 -0.335938 C 0.921875 -0.335938 1.066406 -0.289062 1.179688 -0.191406 C 1.296875 -0.09375 1.351562 0.03125 1.351562 0.191406 C 1.351562 0.304688 1.332031 0.429688 1.292969 0.566406 C 1.253906 0.703125 1.222656 0.800781 1.199219 0.867188 C 1.25 0.890625 1.3125 0.90625 1.394531 0.921875 C 1.472656 0.933594 1.566406 0.9375 1.671875 0.9375 C 1.800781 0.9375 1.929688 0.917969 2.054688 0.875 C 2.183594 0.832031 2.289062 0.761719 2.382812 0.664062 C 2.480469 0.5625 2.554688 0.445312 2.609375 0.308594 C 2.664062 0.171875 2.6875 -0.0117188 2.6875 -0.238281 C 2.6875 -0.367188 2.675781 -0.488281 2.652344 -0.605469 C 2.628906 -0.71875 2.585938 -0.820312 2.523438 -0.90625 C 2.460938 -0.992188 2.371094 -1.058594 2.261719 -1.105469 C 2.152344 -1.15625 2.015625 -1.179688 1.84375 -1.179688 L 1.414062 -1.179688 L 1.414062 -1.589844 L 1.71875 -1.589844 C 2.003906 -1.589844 2.210938 -1.675781 2.335938 -1.84375 C 2.464844 -2.011719 2.53125 -2.269531 2.53125 -2.613281 C 2.53125 -2.890625 2.46875 -3.101562 2.34375 -3.238281 C 2.222656 -3.378906 2.042969 -3.449219 1.8125 -3.449219 C 1.722656 -3.449219 1.644531 -3.441406 1.578125 -3.433594 C 1.515625 -3.421875 1.449219 -3.402344 1.378906 -3.378906 C 1.40625 -3.300781 1.433594 -3.191406 1.472656 -3.054688 C 1.507812 -2.917969 1.527344 -2.800781 1.527344 -2.703125 C 1.527344 -2.542969 1.46875 -2.414062 1.359375 -2.320312 C 1.25 -2.222656 1.105469 -2.175781 0.925781 -2.175781 C 0.757812 -2.175781 0.621094 -2.230469 0.519531 -2.34375 C 0.417969 -2.453125 0.371094 -2.589844 0.371094 -2.746094 C 0.371094 -3.027344 0.53125 -3.265625 0.855469 -3.464844 C 1.179688 -3.660156 1.589844 -3.761719 2.078125 -3.761719 C 2.417969 -3.761719 2.699219 -3.71875 2.921875 -3.640625 C 3.144531 -3.5625 3.320312 -3.464844 3.449219 -3.351562 C 3.574219 -3.238281 3.664062 -3.117188 3.710938 -2.984375 C 3.757812 -2.855469 3.785156 -2.738281 3.785156 -2.632812 C 3.785156 -2.535156 3.761719 -2.421875 3.722656 -2.296875 C 3.679688 -2.171875 3.617188 -2.0625 3.535156 -1.964844 C 3.4375 -1.851562 3.308594 -1.75 3.148438 -1.667969 C 2.984375 -1.585938 2.796875 -1.519531 2.582031 -1.476562 L 2.582031 -1.421875 C 2.730469 -1.410156 2.890625 -1.382812 3.058594 -1.339844 C 3.230469 -1.292969 3.382812 -1.226562 3.511719 -1.140625 Z "/>
</g>
</g>
</defs>
<g fill="rgb(100%, 100%, 100%)" fill-opacity="1">
<use xlink:href="#glyph-0-0" x="30" y="26.367188"/>
</g>
</svg>
