<?xml version="1.0" encoding="UTF-8"?>
<svg xmlns="http://www.w3.org/2000/svg" xmlns:xlink="http://www.w3.org/1999/xlink" width="1920" height="1080" viewBox="0 0 1920 1080">
<defs>
<g>
<g id="glyph-0-0">
<path d="M 5.457031 0 L 2.835938 0 L 2.835938 -0.265625 C 2.957031 -0.273438 3.101562 -0.296875 3.265625 -0.332031 C 3.429688 -0.367188 3.511719 -0.410156 3.511719 -0.460938 C 3.511719 -0.480469 3.507812 -0.5 3.507812 -0.523438 C 3.503906 -0.542969 3.492188 -0.574219 3.476562 -0.613281 L 3.066406 -1.609375 L 1.40625 -1.609375 C 1.367188 -1.519531 1.324219 -1.410156 1.28125 -1.285156 C 1.234375 -1.160156 1.195312 -1.050781 1.160156 -0.953125 C 1.117188 -0.828125 1.09375 -0.734375 1.082031 -0.679688 C 1.074219 -0.621094 1.070312 -0.582031 1.070312 -0.558594 C 1.070312 -0.488281 1.125 -0.425781 1.238281 -0.375 C 1.347656 -0.324219 1.527344 -0.285156 1.785156 -0.265625 L 1.785156 0 L -0.191406 0 L -0.191406 -0.265625 C -0.117188 -0.269531 -0.03125 -0.28125 0.0625 -0.300781 C 0.15625 -0.320312 0.230469 -0.347656 0.285156 -0.378906 C 0.378906 -0.433594 0.457031 -0.5 0.519531 -0.578125 C 0.585938 -0.660156 0.636719 -0.753906 0.679688 -0.859375 C 0.945312 -1.496094 1.207031 -2.132812 1.46875 -2.769531 C 1.734375 -3.40625 2.023438 -4.109375 2.34375 -4.878906 L 3.019531 -4.878906 C 3.464844 -3.789062 3.8125 -2.929688 4.0625 -2.296875 C 4.3125 -1.664062 4.527344 -1.136719 4.703125 -0.722656 C 4.730469 -0.65625 4.769531 -0.59375 4.816406 -0.539062 C 4.859375 -0.480469 4.925781 -0.429688 5.007812 -0.378906 C 5.070312 -0.34375 5.144531 -0.316406 5.226562 -0.296875 C 5.3125 -0.28125 5.386719 -0.269531 5.457031 -0.265625 L 5.457031 0 M 2.925781 -1.945312 L 2.230469 -3.683594 L 1.542969 -1.945312 Z "/>
</g>
</g>
</defs>
<g fill="rgb(100%, 100%, 100%)" fill-opacity="1">
<use xlink:href="#glyph-0-0" x="30" y="26.367188"/>
</g>
</svg>
